<?xml version="1.0" encoding="UTF-8"?>
<svg version="1.1" xmlns="http://www.w3.org/2000/svg" width="414" height="188">
<path d="M0 0 C0.92941406 -0.01224609 1.85882813 -0.02449219 2.81640625 -0.03710938 C8.19930933 -0.04852996 12.66158327 0.40936542 17.75 2.1875 C17.75 2.8475 17.75 3.5075 17.75 4.1875 C16.6878125 4.26226563 15.625625 4.33703125 14.53125 4.4140625 C2.90315715 5.38011454 2.90315715 5.38011454 -6.25 12.1875 C-10.10211785 16.93730904 -11.5077929 22.09962163 -11.25 28.1875 C-10.10920535 34.37771359 -7.9141572 39.13349007 -4.25 44.1875 C-4.25 44.8475 -4.25 45.5075 -4.25 46.1875 C-3.37601563 46.61869141 -3.37601563 46.61869141 -2.484375 47.05859375 C-1.10671523 47.75464912 0.26076861 48.47185647 1.609375 49.22265625 C6.40020131 51.82593584 10.3121875 52.79908482 15.75 53.1875 C14.66332031 52.84138672 14.66332031 52.84138672 13.5546875 52.48828125 C4.874324 49.5601053 -0.68719339 46.49832633 -5.25 38.1875 C-7.87818169 30.87040324 -8.08411006 23.7486056 -5.421875 16.40234375 C-2.62212879 11.11082341 1.86179652 7.94940667 7.3125 5.75 C15.92917093 4.3399993 23.55591082 5.47367759 30.9375 10.25 C39.25662075 18.12134937 45.2466713 29.39828204 45.98828125 40.875 C46.31239773 53.43086381 44.70445458 65.55268245 35.75 75.1875 C32.375 76.75 32.375 76.75 29.75 77.1875 C30.08 78.1775 30.41 79.1675 30.75 80.1875 C18.12710781 89.86609476 7.5771055 92.32575074 -8.25 91.1875 C-19.62473068 89.63895993 -29.18619729 83.46922667 -36.46484375 74.7109375 C-44.92646932 62.74986503 -46.6119777 52.50572921 -46.25 38.1875 C-45.26 38.1875 -44.27 38.1875 -43.25 38.1875 C-43.13785156 38.74695312 -43.02570313 39.30640625 -42.91015625 39.8828125 C-39.54216003 53.57492784 -30.45776063 65.52156616 -18.5625 72.875 C-5.82347562 79.97884191 7.37856654 82.78549228 21.75 80.1875 C20.81800781 80.16171875 19.88601562 80.1359375 18.92578125 80.109375 C2.94708651 79.39849273 -12.81289192 75.06662192 -24.25 63.1875 C-34.45871308 51.9181414 -39.89056313 37.46950604 -39.25 22.1875 C-37.27637273 16.3899699 -32.96589328 11.98012819 -28.25 8.1875 C-25.99609375 7.45703125 -25.99609375 7.45703125 -24.25 7.1875 C-24.58 8.8375 -24.91 10.4875 -25.25 12.1875 C-25.91 12.1875 -26.57 12.1875 -27.25 12.1875 C-29.23176525 24.82125344 -29.70329036 38.18502376 -22.25 49.1875 C-22.25 49.8475 -22.25 50.5075 -22.25 51.1875 C-21.59 51.1875 -20.93 51.1875 -20.25 51.1875 C-19.20502642 52.35715793 -18.213904 53.57518092 -17.25 54.8125 C-10.23658464 63.05326305 -1.40056709 66.68238805 9.1875 67.875 C13.89273324 68.25193857 18.10413536 67.97642041 22.75 67.1875 C21.79480469 67.16171875 20.83960938 67.1359375 19.85546875 67.109375 C5.60180728 66.48408975 -4.84330485 63.02573024 -14.9375 52.5625 C-21.63274806 44.62625631 -24.65969968 34.42469599 -24.5234375 24.19140625 C-23.71139164 15.27050244 -19.56145294 7.4843092 -13.25 1.1875 C-8.86140137 -0.27536621 -4.59698167 0.00313573 0 0 Z " fill="#11105D" transform="translate(206.25,19.8125)"/>
<path d="M0 0 C8.71352484 8.19368387 13.23200528 18.15687193 13.8125 29.9375 C13.87695312 30.90945312 13.94140625 31.88140625 14.0078125 32.8828125 C14.30193884 40.235971 14.30193884 40.235971 11.9375 43.625 C9.8125 44.9375 9.8125 44.9375 7.8125 44.9375 C7.544375 45.55625 7.27625 46.175 7 46.8125 C5.8125 48.9375 5.8125 48.9375 2.8125 50.9375 C1.4925 50.2775 0.1725 49.6175 -1.1875 48.9375 C-0.1975 48.2775 0.7925 47.6175 1.8125 46.9375 C1.544375 46.091875 1.27625 45.24625 1 44.375 C0.74004812 39.6092155 2.81179278 37.44697765 5.8125 33.9375 C5.28785156 34.4428125 4.76320312 34.948125 4.22265625 35.46875 C-1.38939472 40.17502902 -5.7771693 41.60582561 -12.9375 41.5625 C-13.65800537 41.56056641 -14.37851074 41.55863281 -15.12084961 41.55664062 C-22.11209895 41.29175328 -27.11337073 38.61104011 -32.1875 33.9375 C-37.18737571 27.65194197 -38.88659858 20.90722386 -38.1875 12.9375 C-37.00749664 6.38322393 -34.52834487 2.44103288 -29.30078125 -1.6875 C-20.20846307 -7.60338909 -8.70088174 -5.6299823 0 0 Z " fill="#020255" transform="translate(237.1875,30.0625)"/>
<path d="M0 0 C0.92941406 -0.01224609 1.85882813 -0.02449219 2.81640625 -0.03710938 C8.19930933 -0.04852996 12.66158327 0.40936542 17.75 2.1875 C17.75 2.8475 17.75 3.5075 17.75 4.1875 C16.6878125 4.26226563 15.625625 4.33703125 14.53125 4.4140625 C2.90315715 5.38011454 2.90315715 5.38011454 -6.25 12.1875 C-10.10211785 16.93730904 -11.5077929 22.09962163 -11.25 28.1875 C-10.10920535 34.37771359 -7.9141572 39.13349007 -4.25 44.1875 C-4.25 44.8475 -4.25 45.5075 -4.25 46.1875 C-3.37601563 46.61869141 -3.37601563 46.61869141 -2.484375 47.05859375 C-1.10671523 47.75464912 0.26076861 48.47185647 1.609375 49.22265625 C6.40020131 51.82593584 10.3121875 52.79908482 15.75 53.1875 C14.43 52.5275 13.11 51.8675 11.75 51.1875 C12.65621094 51.26871094 13.56242187 51.34992188 14.49609375 51.43359375 C21.11447152 51.77676889 25.70080105 51.99797771 31 47.6875 C31.68578125 47.0378125 32.3715625 46.388125 33.078125 45.71875 C34.75 44.1875 34.75 44.1875 36.75 44.1875 C35.73794398 46.21161204 34.74595882 48.1940935 33.5625 50.125 C32.50955069 52.79787133 33.16908801 54.42816804 33.75 57.1875 C33.09 57.8475 32.43 58.5075 31.75 59.1875 C32.74 59.6825 32.74 59.6825 33.75 60.1875 C33.75 60.8475 33.75 61.5075 33.75 62.1875 C31.11 62.8475 28.47 63.5075 25.75 64.1875 C25.75 64.8475 25.75 65.5075 25.75 66.1875 C11.46731659 66.75315083 -0.16130187 66.31093991 -11.25 56.1875 C-18.61728507 49.32777319 -23.48984603 39.87627049 -24.48828125 29.77734375 C-24.78810837 19.06246939 -21.58075459 11.18724182 -14.93359375 2.8671875 C-11.00857143 -1.04872804 -5.15964152 0.00351954 0 0 Z " fill="#2F2F74" transform="translate(206.25,19.8125)"/>
<path d="M0 0 C0.66 0.33 1.32 0.66 2 1 C2.4118683 2.37990914 2.7527789 3.78113676 3.0625 5.1875 C7.09100757 19.4201968 17.28375764 30.35523012 29.92578125 37.4296875 C33.49145939 39.25103771 37.08838893 40.79255659 40.84375 42.17578125 C43 43 43 43 44.85058594 44.02563477 C47.22561924 45.10227696 48.95156489 45.30884723 51.546875 45.4140625 C52.39121094 45.45273438 53.23554688 45.49140625 54.10546875 45.53125 C55.41451172 45.57765625 55.41451172 45.57765625 56.75 45.625 C57.63816406 45.66367188 58.52632812 45.70234375 59.44140625 45.7421875 C61.6273998 45.83620873 63.81339062 45.92186143 66 46 C66 47.32 66 48.64 66 50 C54.55081311 55.16335879 40.62355038 56.03642008 28.55078125 52.09765625 C14.84514294 46.19982414 6.69232664 36.57545004 1 23 C-1.76842744 16.01238266 -1.4321948 8.40761778 -1 1 C-0.67 0.67 -0.34 0.34 0 0 Z " fill="#04025D" transform="translate(161,57)"/>
<path d="M0 0 C0.78141357 -0.01764404 1.56282715 -0.03528809 2.36791992 -0.0534668 C5.71712915 -0.04947489 8.1338562 0.07671289 11.09765625 1.70703125 C12.5625 3.3125 12.5625 3.3125 12.5625 5.3125 C13.160625 5.539375 13.75875 5.76625 14.375 6 C17.17433411 7.67960046 18.14350061 9.40355125 19.5625 12.3125 C19.5625 13.3025 19.5625 14.2925 19.5625 15.3125 C8.45135203 20.86807398 -11.10926702 15.7234185 -22.4375 12.3125 C-24.9296875 11.1796875 -24.9296875 11.1796875 -26.4375 10.3125 C-26.18632248 7.2146439 -25.90948231 5.73728408 -23.5625 3.625 C-15.98122533 0.44086464 -8.12623863 0.10684907 0 0 Z " fill="#DDE1E5" transform="translate(164.4375,99.6875)"/>
<path d="M0 0 C-0.33 1.65 -0.66 3.3 -1 5 C-1.66 5 -2.32 5 -3 5 C-4.98176525 17.63375344 -5.45329036 30.99752376 2 42 C2 42.66 2 43.32 2 44 C2.66 44 3.32 44 4 44 C4.28875 44.78375 4.5775 45.5675 4.875 46.375 C5.84912254 49.09671632 5.84912254 49.09671632 8 51 C8 52.32 8 53.64 8 55 C8.66 55 9.32 55 10 55 C10 55.99 10 56.98 10 58 C7.03 57.01 4.06 56.02 1 55 C1 54.34 1 53.68 1 53 C0.13375 52.9071875 0.13375 52.9071875 -0.75 52.8125 C-5.55963049 51.07568899 -7.42391658 46.41009923 -9.5625 42.0625 C-13.41252953 33.28110549 -17.211942 21.49757962 -14 12.0625 C-11.06949358 7.57516205 -5.90587244 0 0 0 Z " fill="#060557" transform="translate(182,27)"/>
<path d="M0 0 C0.5775 0.28875 1.155 0.5775 1.75 0.875 C2.08 1.865 2.41 2.855 2.75 3.875 C3.8225 3.194375 4.895 2.51375 6 1.8125 C9.41602167 -0.15136671 9.41602167 -0.15136671 12.125 0.0625 C13.75 0.875 13.75 0.875 14.75 1.875 C14.83631874 3.21767413 14.85706473 4.56474322 14.84765625 5.91015625 C14.84443359 6.71904297 14.84121094 7.52792969 14.83789062 8.36132812 C14.82532227 9.6365332 14.82532227 9.6365332 14.8125 10.9375 C14.80798828 11.79150391 14.80347656 12.64550781 14.79882812 13.52539062 C14.78700373 15.64195663 14.76906769 17.75848685 14.75 19.875 C15.74 20.205 16.73 20.535 17.75 20.875 C17.75 21.865 17.75 22.855 17.75 23.875 C14.45 23.875 11.15 23.875 7.75 23.875 C8.75 19.875 8.75 19.875 9.75 16.875 C9.7933573 15.35478483 9.79007394 13.83280527 9.75 12.3125 C9.63923557 8.09652886 9.63923557 8.09652886 10.75 5.875 C6.90313247 7.3932064 6.90313247 7.3932064 3.75 9.875 C2.82878618 13.21440009 2.70387761 16.42240941 2.75 19.875 C3.41 19.875 4.07 19.875 4.75 19.875 C5.08 21.195 5.41 22.515 5.75 23.875 C2.45 23.875 -0.85 23.875 -4.25 23.875 C-3.92 22.555 -3.59 21.235 -3.25 19.875 C-3.18209325 17.62592848 -3.16500016 15.37498395 -3.1875 13.125 C-3.19652344 11.95453125 -3.20554688 10.7840625 -3.21484375 9.578125 C-3.23224609 8.24007812 -3.23224609 8.24007812 -3.25 6.875 C-5.725 8.36 -5.725 8.36 -8.25 9.875 C-8.10795259 11.45867747 -7.96119847 13.04193318 -7.8125 14.625 C-7.73128906 15.50671875 -7.65007812 16.3884375 -7.56640625 17.296875 C-7.27128823 20.1370811 -7.27128823 20.1370811 -6.25 23.875 C-9.88 23.875 -13.51 23.875 -17.25 23.875 C-16.92 22.555 -16.59 21.235 -16.25 19.875 C-15.59 19.875 -14.93 19.875 -14.25 19.875 C-14.25 14.925 -14.25 9.975 -14.25 4.875 C-15.24 4.545 -16.23 4.215 -17.25 3.875 C-16.92 2.885 -16.59 1.895 -16.25 0.875 C-12.875 0.75 -12.875 0.75 -9.25 0.875 C-8.59 1.535 -7.93 2.195 -7.25 2.875 C-6.5075 2.359375 -5.765 1.84375 -5 1.3125 C-2.25 -0.125 -2.25 -0.125 0 0 Z " fill="#8A939A" transform="translate(154.25,138.125)"/>
<path d="M0 0 C0.92941406 -0.01224609 1.85882813 -0.02449219 2.81640625 -0.03710938 C8.19930933 -0.04852996 12.66158327 0.40936542 17.75 2.1875 C17.75 2.8475 17.75 3.5075 17.75 4.1875 C16.6878125 4.26226563 15.625625 4.33703125 14.53125 4.4140625 C2.90315715 5.38011454 2.90315715 5.38011454 -6.25 12.1875 C-10.10211785 16.93730904 -11.5077929 22.09962163 -11.25 28.1875 C-10.12144653 34.31129015 -8.01514824 39.25385747 -4.25 44.1875 C-4.58 44.8475 -4.91 45.5075 -5.25 46.1875 C-7.6875 45.5 -7.6875 45.5 -10.25 44.1875 C-11.0625 41.5625 -11.0625 41.5625 -11.25 39.1875 C-11.91 39.1875 -12.57 39.1875 -13.25 39.1875 C-12.940625 40.0846875 -12.940625 40.0846875 -12.625 41 C-12.25 43.1875 -12.25 43.1875 -14.25 46.1875 C-14.91 46.1875 -15.57 46.1875 -16.25 46.1875 C-16.54296875 40.23046875 -16.54296875 40.23046875 -16.25 38.1875 C-15.50556641 37.56488281 -15.50556641 37.56488281 -14.74609375 36.9296875 C-12.29917543 34.08027348 -12.98000919 30.68988271 -13.125 27.125 C-13.3560166 19.3995332 -13.3560166 19.3995332 -12.25 17.1875 C-12.91 16.8575 -13.57 16.5275 -14.25 16.1875 C-14.875 13.625 -14.875 13.625 -15.25 11.1875 C-18.62017057 14.55767057 -19.53212123 17.863632 -20.3125 22.5 C-20.47621094 23.46164063 -20.63992187 24.42328125 -20.80859375 25.4140625 C-21.32649658 28.66814226 -21.81451628 31.92137211 -22.25 35.1875 C-21.59 35.1875 -20.93 35.1875 -20.25 35.1875 C-19.96125 36.38375 -19.6725 37.58 -19.375 38.8125 C-18.4975666 42.33476836 -17.44979363 45.75951821 -16.25 49.1875 C-18.9583445 46.82737122 -20.10019927 44.58756885 -21.375 41.25 C-21.70757812 40.39535156 -22.04015625 39.54070313 -22.3828125 38.66015625 C-25.46504386 29.8716317 -25.06978053 21.48416875 -21.59375 12.84375 C-16.14449592 2.07196867 -11.54686378 0.00787644 0 0 Z " fill="#2D2D6E" transform="translate(206.25,19.8125)"/>
<path d="M0 0 C0.71929687 -0.00773437 1.43859375 -0.01546875 2.1796875 -0.0234375 C7.49647556 -0.00352444 7.49647556 -0.00352444 9.75 2.25 C10.01991906 4.93839385 9.83737357 7.54141936 9.75 10.25 C8.1 10.25 6.45 10.25 4.75 10.25 C4.75 8.6 4.75 6.95 4.75 5.25 C3.43 5.25 2.11 5.25 0.75 5.25 C0.75 13.83 0.75 22.41 0.75 31.25 C1.74 31.58 2.73 31.91 3.75 32.25 C3.75 33.24 3.75 34.23 3.75 35.25 C-0.21 35.25 -4.17 35.25 -8.25 35.25 C-7.25 31.25 -7.25 31.25 -5.25 29.25 C-4.97212332 26.82402049 -4.97212332 26.82402049 -5.0546875 24.0234375 C-5.06113281 22.9921875 -5.06757812 21.9609375 -5.07421875 20.8984375 C-5.09097656 19.81820312 -5.10773438 18.73796875 -5.125 17.625 C-5.13402344 16.53703125 -5.14304687 15.4490625 -5.15234375 14.328125 C-5.17596591 11.63519848 -5.20890444 8.94270745 -5.25 6.25 C-6.24 5.92 -7.23 5.59 -8.25 5.25 C-8.58 6.9 -8.91 8.55 -9.25 10.25 C-10.57 10.25 -11.89 10.25 -13.25 10.25 C-13.58 7.61 -13.91 4.97 -14.25 2.25 C-9.34224479 0.30541775 -5.18888301 -0.05702069 0 0 Z " fill="#A2AAB1" transform="translate(115.25,126.75)"/>
<path d="M0 0 C2.125 0.875 2.125 0.875 3.125 2.875 C3.19694869 5.75870333 3.21791708 8.61739664 3.1875 11.5 C3.18298828 12.30179688 3.17847656 13.10359375 3.17382812 13.9296875 C3.16203168 15.91149006 3.14409605 17.89325433 3.125 19.875 C3.785 19.875 4.445 19.875 5.125 19.875 C5.455 21.195 5.785 22.515 6.125 23.875 C2.495 23.875 -1.135 23.875 -4.875 23.875 C-4.545 22.555 -4.215 21.235 -3.875 19.875 C-3.215 19.875 -2.555 19.875 -1.875 19.875 C-1.875 15.255 -1.875 10.635 -1.875 5.875 C-5.72186753 7.3932064 -5.72186753 7.3932064 -8.875 9.875 C-9.79621382 13.21440009 -9.92112239 16.42240941 -9.875 19.875 C-9.215 19.875 -8.555 19.875 -7.875 19.875 C-7.875 21.195 -7.875 22.515 -7.875 23.875 C-11.175 23.875 -14.475 23.875 -17.875 23.875 C-17.545 22.555 -17.215 21.235 -16.875 19.875 C-16.215 19.875 -15.555 19.875 -14.875 19.875 C-14.98841637 17.56190295 -15.11603807 15.24949815 -15.25 12.9375 C-15.31960937 11.64972656 -15.38921875 10.36195313 -15.4609375 9.03515625 C-15.59757813 7.99230469 -15.73421875 6.94945312 -15.875 5.875 C-16.535 5.545 -17.195 5.215 -17.875 4.875 C-17.875 3.555 -17.875 2.235 -17.875 0.875 C-15.235 0.875 -12.595 0.875 -9.875 0.875 C-9.875 1.865 -9.875 2.855 -9.875 3.875 C-8.823125 3.194375 -7.77125 2.51375 -6.6875 1.8125 C-4.04916311 0.29799829 -3.12651431 -0.1359354 0 0 Z " fill="#525B62" transform="translate(252.875,138.125)"/>
<path d="M0 0 C2.47923801 -0.02685095 4.9581884 -0.04676547 7.4375 -0.0625 C8.14455078 -0.07087891 8.85160156 -0.07925781 9.58007812 -0.08789062 C11.38693559 -0.09653588 13.19387603 -0.05220011 15 0 C17.00623238 2.00623238 16.74883118 4.8807164 16.76171875 7.57421875 C15.37716031 11.98350484 11.38004171 13.49583954 7.50390625 15.58984375 C4.88946984 16.75449368 4.88946984 16.75449368 4 19 C9.01535052 18.67039784 9.01535052 18.67039784 13 16 C13.99 16.33 14.98 16.66 16 17 C16 18.98 16 20.96 16 23 C10.39 23 4.78 23 -1 23 C-3.24460432 5.60431655 -3.24460432 5.60431655 0 0 Z M10 4 C8.02 4.33 6.04 4.66 4 5 C2.66666667 8 2.66666667 8 4 11 C6.91517292 9.92598892 8.77810176 9.22189824 11 7 C10.67 6.01 10.34 5.02 10 4 Z " fill="#9DA5AD" transform="translate(263,139)"/>
<path d="M0 0 C3.48119632 6.03407363 3.13248456 12.62418172 3.0625 19.375 C3.05798828 20.20644531 3.05347656 21.03789063 3.04882812 21.89453125 C3.03713164 23.92971897 3.01919935 25.96486923 3 28 C2.01 28.33 1.02 28.66 0 29 C-0.33 31.64 -0.66 34.28 -1 37 C-0.34 37 0.32 37 1 37 C1.33 34.69 1.66 32.38 2 30 C2.99 29.67 3.98 29.34 5 29 C5 30.98 5 32.96 5 35 C6.175625 35.0928125 6.175625 35.0928125 7.375 35.1875 C8.24125 35.455625 9.1075 35.72375 10 36 C11.3125 38.5625 11.3125 38.5625 12 41 C10.515 41.495 10.515 41.495 9 42 C8.505 42.495 8.505 42.495 8 43 C7.01 43 6.02 43 5 43 C5 41.68 5 40.36 5 39 C4.67 39.99 4.34 40.98 4 42 C3.01 42 2.02 42 1 42 C1 41.34 1 40.68 1 40 C0.34 40 -0.32 40 -1 40 C-3.71391278 35.22642128 -5.56561146 31.65611463 -5 26 C-5.66 26 -6.32 26 -7 26 C-6.85834107 23.60385425 -6.71181159 21.20817103 -6.5625 18.8125 C-6.52318359 18.13896484 -6.48386719 17.46542969 -6.44335938 16.77148438 C-6.21072435 13.10300898 -5.82792989 9.58305794 -5 6 C-4.34 6 -3.68 6 -3 6 C-2.67 4.68 -2.34 3.36 -2 2 C-1.34 2 -0.68 2 0 2 C0 1.34 0 0.68 0 0 Z " fill="#020158" transform="translate(191,29)"/>
<path d="M0 0 C2.45862401 -0.05383848 4.9160755 -0.09359038 7.375 -0.125 C8.42300781 -0.15013672 8.42300781 -0.15013672 9.4921875 -0.17578125 C11.32897486 -0.19344267 13.16601963 -0.10303261 15 0 C17 2 17 2 17.24291992 3.93945312 C17.23675659 5.09864258 17.23675659 5.09864258 17.23046875 6.28125 C17.22853516 7.12300781 17.22660156 7.96476563 17.22460938 8.83203125 C17.20624023 10.15267578 17.20624023 10.15267578 17.1875 11.5 C17.18685547 12.38042969 17.18621094 13.26085937 17.18554688 14.16796875 C17.14040057 20.71919885 17.14040057 20.71919885 16 23 C13.35409986 23.02684679 10.70846904 23.04676357 8.0625 23.0625 C7.30775391 23.07087891 6.55300781 23.07925781 5.77539062 23.08789062 C3.85005687 23.09652441 1.92464419 23.05224333 0 23 C-1.58413359 21.41586641 -1.12979629 19.79022215 -1.1328125 17.59765625 C-1.13474609 16.26250977 -1.13474609 16.26250977 -1.13671875 14.90039062 C-1.13285156 13.96388672 -1.12898437 13.02738281 -1.125 12.0625 C-1.12886719 11.12986328 -1.13273438 10.19722656 -1.13671875 9.23632812 C-1.13542969 8.34494141 -1.13414062 7.45355469 -1.1328125 6.53515625 C-1.13168457 5.714104 -1.13055664 4.89305176 -1.12939453 4.04711914 C-1 2 -1 2 0 0 Z M4 4 C4 8.95 4 13.9 4 19 C6.64 19 9.28 19 12 19 C12 14.38 12 9.76 12 5 C8.0404226 3.83830958 8.0404226 3.83830958 4 4 Z " fill="#707980" transform="translate(195,139)"/>
<path d="M0 0 C1.32 0 2.64 0 4 0 C4.33 0.66 4.66 1.32 5 2 C7.77386007 2.92462002 9.72196424 3.18641571 12.60546875 3.31640625 C13.95801758 3.37924805 13.95801758 3.37924805 15.33789062 3.44335938 C16.27826172 3.48267578 17.21863281 3.52199219 18.1875 3.5625 C19.10853516 3.60568359 20.02957031 3.64886719 20.97851562 3.69335938 C26.32482396 3.93240652 31.64857958 4.04401873 37 4 C37.495 4.99 37.495 4.99 38 6 C37.67 6.99 37.34 7.98 37 9 C36.01 9 35.02 9 34 9 C34 9.66 34 10.32 34 11 C32 13 32 13 29.890625 13.265625 C20.10398618 13.20771589 9.60388514 13.0985986 1 8 C0.125 5.8125 0.125 5.8125 0 4 C-0.66 4 -1.32 4 -2 4 C-2 3.34 -2 2.68 -2 2 C-1.34 2 -0.68 2 0 2 C0 1.34 0 0.68 0 0 Z " fill="#040256" transform="translate(195,85)"/>
<path d="M0 0 C1.39456452 0.00667256 2.78911118 0.01863093 4.18359375 0.03515625 C4.89451172 0.03966797 5.60542969 0.04417969 6.33789062 0.04882812 C8.09899388 0.06064761 9.86005411 0.07858362 11.62109375 0.09765625 C11.62109375 2.73765625 11.62109375 5.37765625 11.62109375 8.09765625 C9.97109375 7.76765625 8.32109375 7.43765625 6.62109375 7.09765625 C6.62109375 6.43765625 6.62109375 5.77765625 6.62109375 5.09765625 C4.97109375 5.09765625 3.32109375 5.09765625 1.62109375 5.09765625 C2.84793549 8.77818148 3.84629218 9.02921801 7.12109375 10.91015625 C11.46877541 13.68880176 11.46877541 13.68880176 12.80859375 17.28515625 C12.62109375 20.09765625 12.62109375 20.09765625 10.62109375 23.09765625 C7.99412311 23.31903018 5.61215411 23.3792765 2.99609375 23.28515625 C2.2896875 23.27162109 1.58328125 23.25808594 0.85546875 23.24414062 C-0.88964753 23.20876665 -2.63437233 23.15495846 -4.37890625 23.09765625 C-4.37890625 20.78765625 -4.37890625 18.47765625 -4.37890625 16.09765625 C-3.05890625 15.76765625 -1.73890625 15.43765625 -0.37890625 15.09765625 C-0.04890625 16.41765625 0.28109375 17.73765625 0.62109375 19.09765625 C2.60109375 19.09765625 4.58109375 19.09765625 6.62109375 19.09765625 C6.62109375 18.10765625 6.62109375 17.11765625 6.62109375 16.09765625 C5.91984375 15.85015625 5.21859375 15.60265625 4.49609375 15.34765625 C1.02938281 13.84039062 -1.55622563 12.65776193 -4.37890625 10.09765625 C-4.94865591 7.03390807 -4.87128923 4.17037537 -4.37890625 1.09765625 C-3.37890625 0.09765625 -3.37890625 0.09765625 0 0 Z " fill="#9FA4A9" transform="translate(301.37890625,138.90234375)"/>
<path d="M0 0 C1.91731918 0.11455681 3.8338675 0.24206258 5.75 0.375 C6.81734375 0.44460937 7.8846875 0.51421875 8.984375 0.5859375 C12 1 12 1 13.90429688 2 C16.26039904 3.12425378 17.94929494 3.3087552 20.546875 3.4140625 C21.81337891 3.47207031 21.81337891 3.47207031 23.10546875 3.53125 C24.41451172 3.57765625 24.41451172 3.57765625 25.75 3.625 C26.63816406 3.66367188 27.52632812 3.70234375 28.44140625 3.7421875 C30.6273998 3.83620873 32.81339062 3.92186143 35 4 C35 4.99 35 5.98 35 7 C27.6650598 9.94801424 20.48868599 10.30221668 12.6875 10.3125 C11.73278809 10.31765625 10.77807617 10.3228125 9.79443359 10.328125 C4.80982253 10.27914479 0.66791357 9.96255663 -4 8 C-2.625 6.5 -2.625 6.5 -1 5 C-0.34 5 0.32 5 1 5 C0.67 3.35 0.34 1.7 0 0 Z " fill="#040557" transform="translate(192,99)"/>
<path d="M0 0 C1.27617187 0.02320313 2.55234375 0.04640625 3.8671875 0.0703125 C5.78917969 0.09738281 5.78917969 0.09738281 7.75 0.125 C9.23113281 0.15980469 9.23113281 0.15980469 10.7421875 0.1953125 C11.8671875 4.9453125 11.8671875 4.9453125 10.7421875 7.1953125 C9.4221875 6.8653125 8.1021875 6.5353125 6.7421875 6.1953125 C6.7421875 5.5353125 6.7421875 4.8753125 6.7421875 4.1953125 C4.7621875 4.5253125 2.7821875 4.8553125 0.7421875 5.1953125 C0.4121875 9.8153125 0.0821875 14.4353125 -0.2578125 19.1953125 C2.0521875 19.1953125 4.3621875 19.1953125 6.7421875 19.1953125 C6.7421875 18.5353125 6.7421875 17.8753125 6.7421875 17.1953125 C7.7321875 16.8653125 8.7221875 16.5353125 9.7421875 16.1953125 C10.4021875 16.5253125 11.0621875 16.8553125 11.7421875 17.1953125 C11.7421875 19.1753125 11.7421875 21.1553125 11.7421875 23.1953125 C9.09628736 23.22215929 6.45065654 23.24207607 3.8046875 23.2578125 C3.04994141 23.26619141 2.29519531 23.27457031 1.51757812 23.28320312 C-0.40775563 23.29183691 -2.33316831 23.24755583 -4.2578125 23.1953125 C-6.55791023 20.89521477 -5.44318615 15.34740584 -5.4453125 12.2578125 C-5.45755859 11.32517578 -5.46980469 10.39253906 -5.48242188 9.43164062 C-5.48435547 8.54025391 -5.48628906 7.64886719 -5.48828125 6.73046875 C-5.49444458 5.49889038 -5.49444458 5.49889038 -5.50073242 4.24243164 C-5.05670458 0.50054876 -3.55628475 0.21320652 0 0 Z " fill="#AFB6BC" transform="translate(180.2578125,138.8046875)"/>
<path d="M0 0 C0.556875 0.226875 1.11375 0.45375 1.6875 0.6875 C-0.2925 1.6775 -0.2925 1.6775 -2.3125 2.6875 C-1.6525 3.0175 -0.9925 3.3475 -0.3125 3.6875 C-0.39941739 6.45986494 -0.50627361 9.22897078 -0.625 12 C-0.64755859 12.78568359 -0.67011719 13.57136719 -0.69335938 14.38085938 C-0.72880859 15.13818359 -0.76425781 15.89550781 -0.80078125 16.67578125 C-0.82696533 17.37227783 -0.85314941 18.06877441 -0.88012695 18.78637695 C-1.42473768 21.18100359 -2.47079162 22.12022547 -4.3125 23.6875 C-4.14878906 23.16671875 -3.98507813 22.6459375 -3.81640625 22.109375 C-3.17191341 19.0118125 -3.21838411 16.09908906 -3.25 12.9375 C-3.25902344 11.76703125 -3.26804688 10.5965625 -3.27734375 9.390625 C-3.29474609 8.05257812 -3.29474609 8.05257812 -3.3125 6.6875 C-5.7875 8.1725 -5.7875 8.1725 -8.3125 9.6875 C-8.17045259 11.27117747 -8.02369847 12.85443318 -7.875 14.4375 C-7.79378906 15.31921875 -7.71257812 16.2009375 -7.62890625 17.109375 C-7.33378823 19.9495811 -7.33378823 19.9495811 -6.3125 23.6875 C-9.9425 23.6875 -13.5725 23.6875 -17.3125 23.6875 C-16.9825 22.3675 -16.6525 21.0475 -16.3125 19.6875 C-15.6525 19.6875 -14.9925 19.6875 -14.3125 19.6875 C-14.3125 14.7375 -14.3125 9.7875 -14.3125 4.6875 C-15.3025 4.3575 -16.2925 4.0275 -17.3125 3.6875 C-16.9825 2.6975 -16.6525 1.7075 -16.3125 0.6875 C-12.9375 0.5625 -12.9375 0.5625 -9.3125 0.6875 C-8.6525 1.3475 -7.9925 2.0075 -7.3125 2.6875 C-6.57 2.171875 -5.8275 1.65625 -5.0625 1.125 C-2.3125 -0.3125 -2.3125 -0.3125 0 0 Z " fill="#A7AEB5" transform="translate(154.3125,138.3125)"/>
<path d="M0 0 C2.31 0 4.62 0 7 0 C7.33 0.66 7.66 1.32 8 2 C8.99 1.34 9.98 0.68 11 0 C14.125 -0.1875 14.125 -0.1875 17 0 C18 1 18 1 18.0625 4.5625 C18.041875 5.696875 18.02125 6.83125 18 8 C16.68 8.33 15.36 8.66 14 9 C13.34 8.01 12.68 7.02 12 6 C10.02 6.99 10.02 6.99 8 8 C7.97284617 9.74991334 7.95353449 11.49994945 7.9375 13.25 C7.92589844 14.22453125 7.91429687 15.1990625 7.90234375 16.203125 C7.91085339 19.2342623 7.91085339 19.2342623 9 23 C6.03 23 3.06 23 0 23 C0 21.68 0 20.36 0 19 C0.66 19 1.32 19 2 19 C2 14.05 2 9.1 2 4 C1.01 3.67 0.02 3.34 -1 3 C-0.67 2.01 -0.34 1.02 0 0 Z " fill="#707980" transform="translate(215,139)"/>
<path d="M0 0 C0 9.9 0 19.8 0 30 C1.32 30.33 2.64 30.66 4 31 C4 31.99 4 32.98 4 34 C0.04 34 -3.92 34 -8 34 C-7.67 32.68 -7.34 31.36 -7 30 C-6.01 30 -5.02 30 -4 30 C-4 21.42 -4 12.84 -4 4 C-5.32 3.67 -6.64 3.34 -8 3 C-8 2.01 -8 1.02 -8 0 C-5 -1 -5 -1 0 0 Z " fill="#7C868C" transform="translate(290,128)"/>
<path d="M0 0 C6.27 0 12.54 0 19 0 C19 0.33 19 0.66 19 1 C17.35 1.33 15.7 1.66 14 2 C15.670625 2.4021875 15.670625 2.4021875 17.375 2.8125 C21 4 21 4 23 7 C21.17743938 8.90180239 19.68873679 9.91735158 17.046875 10.234375 C14.68358445 10.25090151 12.35811238 10.15795968 10 10 C9.18144531 9.94585937 8.36289063 9.89171875 7.51953125 9.8359375 C3.50339015 9.48215019 1.44496351 9.29664234 -2 7 C-2 6.34 -2 5.68 -2 5 C0.64 4.67 3.28 4.34 6 4 C6 3.34 6 2.68 6 2 C3.03 1.505 3.03 1.505 0 1 C0 0.67 0 0.34 0 0 Z " fill="#020257" transform="translate(210,75)"/>
<path d="M0 0 C3.78716158 1.50362259 7.55245187 3.05487001 11.3125 4.625 C12.38113281 5.07101563 13.44976562 5.51703125 14.55078125 5.9765625 C15.76314453 6.48316406 15.76314453 6.48316406 17 7 C17 7.33 17 7.66 17 8 C9.25 8.125 9.25 8.125 7 7 C7.33 8.65 7.66 10.3 8 12 C6.02 12.99 6.02 12.99 4 14 C9.00061147 16.68117891 14.10752468 16.3016946 19.625 16.25 C21.09864014 16.24419922 21.09864014 16.24419922 22.60205078 16.23828125 C29.22038716 16.15926944 35.57806798 15.72070906 42 14 C37.725638 18.78571205 32.10680751 18.88020114 26.015625 19.2265625 C13.9882673 19.56551408 3.97737369 18.23288121 -6 11 C-2.61682513 10.02408417 -0.4342662 10.14143345 3 11 C2.7215625 9.7934375 2.7215625 9.7934375 2.4375 8.5625 C2.293125 7.716875 2.14875 6.87125 2 6 C2.33 5.67 2.66 5.34 3 5 C2.505 4.54625 2.01 4.0925 1.5 3.625 C0 2 0 2 0 0 Z " fill="#44477E" transform="translate(185,92)"/>
<path d="M0 0 C0.94875 0.86625 1.8975 1.7325 2.875 2.625 C12.42135083 10.77997986 22.39671518 14.9197243 35 15 C39.37508835 14.52971363 43.6798565 13.83106099 48 13 C47 15 47 15 45.3137207 15.64160156 C39.15086253 17.03923632 33.47655997 17.1338603 27.1875 16.75 C26.26001953 16.71003906 25.33253906 16.67007813 24.37695312 16.62890625 C20.0328492 16.39713719 16.84029231 16.18002587 13 14 C13 13.34 13 12.68 13 12 C11.68 12 10.36 12 9 12 C9 12.66 9 13.32 9 14 C8.34 14 7.68 14 7 14 C7 14.66 7 15.32 7 16 C7.66 16 8.32 16 9 16 C9.33 16.99 9.66 17.98 10 19 C6.25234185 17.66439842 3.3836183 16.0073532 0.25 13.5625 C-0.91789063 12.66724609 -0.91789063 12.66724609 -2.109375 11.75390625 C-4 10 -4 10 -5 7 C-4.34 7 -3.68 7 -3 7 C-3 7.66 -3 8.32 -3 9 C-2.2575 8.938125 -1.515 8.87625 -0.75 8.8125 C2.45383006 9.03094296 3.64031256 9.90250005 6 12 C6 11.01 6 10.02 6 9 C5.34 9 4.68 9 4 9 C3.71125 8.2575 3.4225 7.515 3.125 6.75 C2.17631737 4.43099801 1.13440221 2.23067324 0 0 Z " fill="#373677" transform="translate(186,73)"/>
<path d="M0 0 C0.66 0.33 1.32 0.66 2 1 C2.60546875 2.8984375 2.60546875 2.8984375 3.1875 5.375 C4.70675106 10.89521065 7.41201695 15.08548767 10.671875 19.75 C11.11015625 20.4925 11.5484375 21.235 12 22 C11.67 22.66 11.34 23.32 11 24 C9.35 23.67 7.7 23.34 6 23 C6 25.97 6 28.94 6 32 C-1.12718262 23.46371824 -1.94023953 11.66632385 -1 1 C-0.67 0.67 -0.34 0.34 0 0 Z " fill="#3D3C7C" transform="translate(161,57)"/>
<path d="M0 0 C2.31 0 4.62 0 7 0 C7 6.27 7 12.54 7 19 C7.99 19.33 8.98 19.66 10 20 C10 20.99 10 21.98 10 23 C6.37 23 2.74 23 -1 23 C-0.67 21.68 -0.34 20.36 0 19 C0.66 19 1.32 19 2 19 C1.88566637 16.74943278 1.75813564 14.49953326 1.625 12.25 C1.55539063 10.99703125 1.48578125 9.7440625 1.4140625 8.453125 C1.04676696 5.39001879 0.60288714 3.58025734 -1 1 C-0.67 0.67 -0.34 0.34 0 0 Z " fill="#4C5760" transform="translate(125,139)"/>
<path d="M0 0 C1.39456452 0.00667256 2.78911118 0.01863093 4.18359375 0.03515625 C4.89451172 0.03966797 5.60542969 0.04417969 6.33789062 0.04882812 C8.09899388 0.06064761 9.86005411 0.07858362 11.62109375 0.09765625 C11.62109375 2.73765625 11.62109375 5.37765625 11.62109375 8.09765625 C9.97109375 7.76765625 8.32109375 7.43765625 6.62109375 7.09765625 C6.62109375 6.43765625 6.62109375 5.77765625 6.62109375 5.09765625 C4.97109375 5.09765625 3.32109375 5.09765625 1.62109375 5.09765625 C2.8665578 8.83404841 4.25514328 9.28522138 7.62109375 11.09765625 C6.63109375 11.59265625 6.63109375 11.59265625 5.62109375 12.09765625 C3.49609375 11.16015625 3.49609375 11.16015625 1.62109375 10.09765625 C1.29109375 10.75765625 0.96109375 11.41765625 0.62109375 12.09765625 C-1.85390625 11.10765625 -1.85390625 11.10765625 -4.37890625 10.09765625 C-4.40579841 8.61858733 -4.42525246 7.13938142 -4.44140625 5.66015625 C-4.45300781 4.83644531 -4.46460938 4.01273438 -4.4765625 3.1640625 C-4.3105505 -0.34875149 -3.62433237 0.10474949 0 0 Z " fill="#B4BCC1" transform="translate(301.37890625,138.90234375)"/>
<path d="M0 0 C5.75 0.875 5.75 0.875 8 2 C8 2.66 8 3.32 8 4 C8.99 4 9.98 4 11 4 C11 3.34 11 2.68 11 2 C13.9375 2.8125 13.9375 2.8125 17 4 C17.33 4.99 17.66 5.98 18 7 C18.99 7.66 19.98 8.32 21 9 C21 12 21 12 20 15 C17.03 14.67 14.06 14.34 11 14 C10.938125 12.8553125 10.938125 12.8553125 10.875 11.6875 C10.22176391 8.67594887 10.22176391 8.67594887 6.9375 7.1875 C5.968125 6.795625 4.99875 6.40375 4 6 C4 5.01 4 4.02 4 3 C3.01 3 2.02 3 1 3 C0.67 2.01 0.34 1.02 0 0 Z " fill="#020255" transform="translate(168,88)"/>
<path d="M0 0 C0.66 0 1.32 0 2 0 C2.66 1.32 3.32 2.64 4 4 C4.33 3.01 4.66 2.02 5 1 C8.16115776 2.36983503 8.9927092 2.9890638 11 6 C11.99 6.33 12.98 6.66 14 7 C14 7.99 14 8.98 14 10 C16.31 10 18.62 10 21 10 C18.35261084 11.4606285 17.10551666 12 14 12 C14 12.66 14 13.32 14 14 C8.88360883 14.37307019 6.82070311 12.82328657 2.9375 9.734375 C0.2839785 7.35904527 -1.84312218 4.83090214 -4 2 C-3.34 1.67 -2.68 1.34 -2 1 C-2 1.66 -2 2.32 -2 3 C-1.01 3 -0.02 3 1 3 C0.67 2.01 0.34 1.02 0 0 Z " fill="#1E1F64" transform="translate(194,68)"/>
<path d="M0 0 C0.99 0.33 1.98 0.66 3 1 C4.1875 4.0625 4.1875 4.0625 5 7 C5.66 7 6.32 7 7 7 C7.28875 7.78375 7.5775 8.5675 7.875 9.375 C8.84912254 12.09671632 8.84912254 12.09671632 11 14 C11 15.32 11 16.64 11 18 C11.66 18 12.32 18 13 18 C13 18.99 13 19.98 13 21 C10.03 20.01 7.06 19.02 4 18 C4 17.34 4 16.68 4 16 C3.34 16 2.68 16 2 16 C0.01759959 13.14534341 -1.69188775 10.49193878 -2 7 C-1.411438 4.645752 -0.75407101 2.30657014 0 0 Z " fill="#070650" transform="translate(179,64)"/>
<path d="M0 0 C4.16923628 6.40394693 2.76299784 17.30049154 1.27734375 24.50390625 C-0.64421485 30.59532482 -3.30114881 35.80161455 -7 41 C-7.33 41 -7.66 41 -8 41 C-8 39.35 -8 37.7 -8 36 C-7.34 36 -6.68 36 -6 36 C-6 35.34 -6 34.68 -6 34 C-5.34 34 -4.68 34 -4 34 C-4 32.02 -4 30.04 -4 28 C-5.3303125 28.680625 -5.3303125 28.680625 -6.6875 29.375 C-12.65699208 32.30343008 -12.65699208 32.30343008 -15 33 C-15.99 32.34 -16.98 31.68 -18 31 C-17.39671875 30.76925781 -16.7934375 30.53851563 -16.171875 30.30078125 C-11.10647202 28.23377003 -8.20173408 26.57390583 -5 22 C-4.14535156 21.47921875 -3.29070312 20.9584375 -2.41015625 20.421875 C0.27295678 17.72571604 0.36022622 17.27257015 0.48828125 13.671875 C0.45518977 12.03053757 0.39575882 10.38955835 0.3125 8.75 C0.28994141 7.90953125 0.26738281 7.0690625 0.24414062 6.203125 C0.18537714 4.13465036 0.09569885 2.06709512 0 0 Z " fill="#4A4985" transform="translate(250,53)"/>
<path d="M0 0 C1.65 0 3.3 0 5 0 C5 1.32 5 2.64 5 4 C6.32 3.67 7.64 3.34 9 3 C9 4.32 9 5.64 9 7 C8.01 7.495 8.01 7.495 7 8 C6.53248212 10.35599235 6.53248212 10.35599235 6.375 13.0625 C6.30023438 13.98160156 6.22546875 14.90070313 6.1484375 15.84765625 C6.09945312 16.55792969 6.05046875 17.26820313 6 18 C6.66 18 7.32 18 8 18 C8 19.32 8 20.64 8 22 C5.36 22 2.72 22 0 22 C0 21.34 0 20.68 0 20 C0.66 20 1.32 20 2 20 C2 14.06 2 8.12 2 2 C1.34 2 0.68 2 0 2 C0 1.34 0 0.68 0 0 Z " fill="#6C777F" transform="translate(237,140)"/>
<path d="M0 0 C1.09054688 0.02320313 2.18109375 0.04640625 3.3046875 0.0703125 C4.40039062 0.08835938 5.49609375 0.10640625 6.625 0.125 C7.46804687 0.14820313 8.31109375 0.17140625 9.1796875 0.1953125 C9.1796875 1.5153125 9.1796875 2.8353125 9.1796875 4.1953125 C8.5196875 4.1953125 7.8596875 4.1953125 7.1796875 4.1953125 C7.1796875 3.5353125 7.1796875 2.8753125 7.1796875 2.1953125 C4.2096875 2.1953125 1.2396875 2.1953125 -1.8203125 2.1953125 C-1.8203125 8.1353125 -1.8203125 14.0753125 -1.8203125 20.1953125 C1.8096875 20.1953125 5.4396875 20.1953125 9.1796875 20.1953125 C9.1796875 20.8553125 9.1796875 21.5153125 9.1796875 22.1953125 C4.5596875 22.1953125 -0.0603125 22.1953125 -4.8203125 22.1953125 C-4.87408191 18.90342981 -4.91387356 15.61241824 -4.9453125 12.3203125 C-4.96207031 11.38316406 -4.97882813 10.44601563 -4.99609375 9.48046875 C-5.00576172 8.13662109 -5.00576172 8.13662109 -5.015625 6.765625 C-5.02609863 5.93820801 -5.03657227 5.11079102 -5.04736328 4.25830078 C-4.66411402 0.77608972 -3.34832986 0.2318788 0 0 Z " fill="#535E65" transform="translate(180.8203125,139.8046875)"/>
<path d="M0 0 C-0.66 0 -1.32 0 -2 0 C-1.505 1.485 -1.505 1.485 -1 3 C-2.28716647 4.00578589 -3.57988658 5.00446798 -4.875 6 C-5.59429687 6.556875 -6.31359375 7.11375 -7.0546875 7.6875 C-9 9 -9 9 -11 9 C-11 8.01 -11 7.02 -11 6 C-11.55461914 6.01047363 -12.10923828 6.02094727 -12.68066406 6.03173828 C-15.20372959 6.07342004 -17.72672253 6.09936438 -20.25 6.125 C-21.55904297 6.15013672 -21.55904297 6.15013672 -22.89453125 6.17578125 C-23.73886719 6.18222656 -24.58320313 6.18867187 -25.453125 6.1953125 C-26.22817383 6.20578613 -27.00322266 6.21625977 -27.80175781 6.22705078 C-30.25883539 5.97326556 -31.87311542 5.22444152 -34 4 C-30.95015699 2.4750785 -28.34878617 3.52160198 -25 4 C-19.84278127 4.24174463 -15.08964907 3.92008003 -10 3 C-11.02480469 2.93941406 -12.04960937 2.87882812 -13.10546875 2.81640625 C-14.46615695 2.73194974 -15.82683343 2.64730433 -17.1875 2.5625 C-17.86103516 2.52318359 -18.53457031 2.48386719 -19.22851562 2.44335938 C-22.89699102 2.21072435 -26.41694206 1.82792989 -30 1 C-30 0.67 -30 0.34 -30 0 C-29.35973877 0.00523682 -28.71947754 0.01047363 -28.05981445 0.01586914 C-25.14405305 0.03672429 -22.22830738 0.04968729 -19.3125 0.0625 C-18.30509766 0.07087891 -17.29769531 0.07925781 -16.25976562 0.08789062 C-15.28330078 0.09111328 -14.30683594 0.09433594 -13.30078125 0.09765625 C-12.40528564 0.10289307 -11.50979004 0.10812988 -10.5871582 0.11352539 C-7.97168385 0.07099282 -7.97168385 0.07099282 -5.35620117 -0.56860352 C-3 -1 -3 -1 0 0 Z " fill="#8A8AAF" transform="translate(238,97)"/>
<path d="M0 0 C1.32 0 2.64 0 4 0 C4 1.32 4 2.64 4 4 C5.32 4.33 6.64 4.66 8 5 C7.01 6.485 7.01 6.485 6 8 C5.54398739 10.50896686 5.54398739 10.50896686 5.375 13.1875 C5.30023438 14.08855469 5.22546875 14.98960937 5.1484375 15.91796875 C5.09945312 16.60503906 5.05046875 17.29210937 5 18 C5.66 18 6.32 18 7 18 C7.33 19.32 7.66 20.64 8 22 C5.03 22 2.06 22 -1 22 C-0.505 20.515 -0.505 20.515 0 19 C0.25790633 15.786917 0.44196144 12.57999983 0.60546875 9.36132812 C0.89914694 4.20170612 0.89914694 4.20170612 2 2 C1.01 1.67 0.02 1.34 -1 1 C-0.67 0.67 -0.34 0.34 0 0 Z " fill="#616C74" transform="translate(152,140)"/>
<path d="M0 0 C1.10198381 3.30595143 0.83586003 3.81008519 0 7 C-0.37888358 13.42339843 -0.22548227 19.57565366 1.125 25.875 C1.91083128 29.57428739 2.03790336 30.87068267 0.9375 34.625 C-0.3815633 39.37362789 1.13388826 42.57550927 3 47 C-3.21479944 41.88192987 -7.73279716 33.74541986 -8.875 25.75 C-8.91625 24.8425 -8.9575 23.935 -9 23 C-7 24 -7 24 -6.3671875 25.84765625 C-6.20476562 26.57855469 -6.04234375 27.30945313 -5.875 28.0625 C-5.70742187 28.79597656 -5.53984375 29.52945313 -5.3671875 30.28515625 C-5.24601563 30.85105469 -5.12484375 31.41695312 -5 32 C-4.34 32 -3.68 32 -3 32 C-3 32.99 -3 33.98 -3 35 C-0.48606888 31.22910332 -0.90287506 29.61214502 -1.2421875 25.14453125 C-1.31302048 24.15207649 -1.31302048 24.15207649 -1.38528442 23.13957214 C-1.53824644 21.02964003 -1.70641641 18.92123578 -1.875 16.8125 C-1.98147345 15.38093375 -2.08695408 13.94929328 -2.19140625 12.51757812 C-2.44942909 9.01078491 -2.72110167 5.50520177 -3 2 C-2.01 1.34 -1.02 0.68 0 0 Z " fill="#444382" transform="translate(178,33)"/>
<path d="M0 0 C2.31 0 4.62 0 7 0 C7.33 0.66 7.66 1.32 8 2 C8.99 1.34 9.98 0.68 11 0 C14.125 -0.1875 14.125 -0.1875 17 0 C18 1 18 1 18.0625 4.5625 C18.041875 5.696875 18.02125 6.83125 18 8 C16.68 8.33 15.36 8.66 14 9 C13.34 8.01 12.68 7.02 12 6 C11.01 6.33 10.02 6.66 9 7 C9 6.01 9 5.02 9 4 C8.01 4 7.02 4 6 4 C6 3.01 6 2.02 6 1 C4.35 1 2.7 1 1 1 C1 1.66 1 2.32 1 3 C1.66 3 2.32 3 3 3 C3 8.61 3 14.22 3 20 C2.01 19.67 1.02 19.34 0 19 C0.66 19 1.32 19 2 19 C2 14.05 2 9.1 2 4 C1.01 3.67 0.02 3.34 -1 3 C-0.67 2.01 -0.34 1.02 0 0 Z " fill="#A7AFB5" transform="translate(215,139)"/>
<path d="M0 0 C0.66 0.33 1.32 0.66 2 1 C2.02895976 4.12498063 2.04678483 7.2499269 2.0625 10.375 C2.07087891 11.26445312 2.07925781 12.15390625 2.08789062 13.0703125 C2.09111328 13.92109375 2.09433594 14.771875 2.09765625 15.6484375 C2.10289307 16.43395996 2.10812988 17.21948242 2.11352539 18.02880859 C2 20 2 20 1 22 C0.01 22 -0.98 22 -2 22 C-2 21.34 -2 20.68 -2 20 C-5.3 20 -8.6 20 -12 20 C-12.02684312 17.18743719 -12.04676188 14.37512759 -12.0625 11.5625 C-12.07087891 10.76005859 -12.07925781 9.95761719 -12.08789062 9.13085938 C-12.0965143 7.08704779 -12.0522815 5.04316098 -12 3 C-11 2 -11 2 -8.93359375 1.90234375 C-5.46679688 1.95117188 -5.46679688 1.95117188 -2 2 C-1.67 6.95 -1.34 11.9 -1 17 C0.41774838 15.81147145 0.41774838 15.81147145 0.09765625 12.40234375 C0.0909822 10.91403133 0.07902183 9.42573568 0.0625 7.9375 C0.05798828 7.17888672 0.05347656 6.42027344 0.04882812 5.63867188 C0.0370068 3.75908129 0.01907078 1.87953101 0 0 Z M-11 3 C-11 7.95 -11 12.9 -11 18 C-8.36 18 -5.72 18 -3 18 C-3 13.38 -3 8.76 -3 4 C-6.9595774 2.83830958 -6.9595774 2.83830958 -11 3 Z " fill="#A6ADB3" transform="translate(210,140)"/>
<path d="M0 0 C2.64 0 5.28 0 8 0 C8 0.99 8 1.98 8 3 C9.32 2.67 10.64 2.34 12 2 C12 2.66 12 3.32 12 4 C13.65 3.67 15.3 3.34 17 3 C17.05392397 5.77109307 17.09363455 8.54113818 17.125 11.3125 C17.14175781 12.09818359 17.15851563 12.88386719 17.17578125 13.69335938 C17.18222656 14.45068359 17.18867188 15.20800781 17.1953125 15.98828125 C17.20578613 16.68477783 17.21625977 17.38127441 17.22705078 18.09887695 C17 20 17 20 15 23 C14.34 23 13.68 23 13 23 C13.33 21.68 13.66 20.36 14 19 C14.66 19 15.32 19 16 19 C16 14.38 16 9.76 16 5 C14.35 5.66 12.7 6.32 11 7 C11 6.01 11 5.02 11 4 C9.68 4.33 8.36 4.66 7 5 C7 3.68 7 2.36 7 1 C5.35 1 3.7 1 2 1 C2 1.66 2 2.32 2 3 C2.66 3 3.32 3 4 3 C4 8.94 4 14.88 4 21 C3.34 21 2.68 21 2 21 C2 21.66 2 22.32 2 23 C1.34 23 0.68 23 0 23 C0.33 21.68 0.66 20.36 1 19 C1.66 19 2.32 19 3 19 C2.88658363 16.68690295 2.75896193 14.37449815 2.625 12.0625 C2.55539063 10.77472656 2.48578125 9.48695313 2.4140625 8.16015625 C2.27742187 7.11730469 2.14078125 6.07445312 2 5 C1.34 4.67 0.68 4.34 0 4 C0 2.68 0 1.36 0 0 Z " fill="#B1B8C0" transform="translate(235,139)"/>
<path d="M0 0 C1.32 0 2.64 0 4 0 C4.33 0.66 4.66 1.32 5 2 C7.34386809 2.91031272 7.34386809 2.91031272 10.0625 3.625 C10.98160156 3.88539062 11.90070313 4.14578125 12.84765625 4.4140625 C13.55792969 4.60742188 14.26820313 4.80078125 15 5 C15 5.33 15 5.66 15 6 C13.35 6 11.7 6 10 6 C10 7.32 10 8.64 10 10 C11.65 10.33 13.3 10.66 15 11 C11.396974 12.30179261 9.3234544 11.70754688 5.8125 10.3125 C4.93207031 9.97863281 4.05164063 9.64476563 3.14453125 9.30078125 C1 8 1 8 0.19921875 5.85546875 C0.13347656 5.24316406 0.06773437 4.63085938 0 4 C-0.66 4 -1.32 4 -2 4 C-2 3.34 -2 2.68 -2 2 C-1.34 2 -0.68 2 0 2 C0 1.34 0 0.68 0 0 Z " fill="#26246B" transform="translate(195,85)"/>
<path d="M0 0 C1.65 0 3.3 0 5 0 C5.99814117 5.48977645 6.05071364 10.75235339 5.9375 16.328125 C5.8714665 19.10432605 5.8714665 19.10432605 7 22 C4.36 22 1.72 22 -1 22 C-0.505 20.515 -0.505 20.515 0 19 C0.66 19 1.32 19 2 19 C2 13.39 2 7.78 2 2 C1.34 2 0.68 2 0 2 C0 1.34 0 0.68 0 0 Z " fill="#58656F" transform="translate(139,140)"/>
<path d="M0 0 C1.1859375 0.00257813 2.371875 0.00515625 3.59375 0.0078125 C4.7796875 0.00523437 5.965625 0.00265625 7.1875 0 C10.09375 0.1328125 10.09375 0.1328125 11.09375 1.1328125 C11.46875 4.5078125 11.46875 4.5078125 11.09375 8.1328125 C8.69634082 10.08859367 7.21788392 11.1328125 4.09375 11.1328125 C4.42375 10.1428125 4.75375 9.1528125 5.09375 8.1328125 C5.75375 7.8028125 6.41375 7.4728125 7.09375 7.1328125 C7.74930119 4.60548015 7.74930119 4.60548015 8.09375 2.1328125 C4.79375 2.1328125 1.49375 2.1328125 -1.90625 2.1328125 C-1.88304687 3.19242188 -1.85984375 4.25203125 -1.8359375 5.34375 C-1.81718056 6.7317638 -1.79898028 8.1197852 -1.78125 9.5078125 C-1.76449219 10.20648438 -1.74773437 10.90515625 -1.73046875 11.625 C-1.71280733 13.46178736 -1.80321739 15.29883213 -1.90625 17.1328125 C-2.56625 17.7928125 -3.22625 18.4528125 -3.90625 19.1328125 C-3.93308987 16.15358657 -3.95301037 13.17459955 -3.96875 10.1953125 C-3.97712891 9.34517578 -3.98550781 8.49503906 -3.99414062 7.61914062 C-3.99736328 6.81025391 -4.00058594 6.00136719 -4.00390625 5.16796875 C-4.00914307 4.419104 -4.01437988 3.67023926 -4.01977539 2.89868164 C-3.82355518 -0.15349206 -3.08471963 0.14096837 0 0 Z " fill="#4A555C" transform="translate(266.90625,139.8671875)"/>
<path d="M0 0 C4.29 0 8.58 0 13 0 C14.4706777 2.9413554 14.17048999 5.60227405 14.1875 8.875 C14.20167969 10.10992187 14.21585938 11.34484375 14.23046875 12.6171875 C14.01765455 15.74086712 13.65237226 17.40061596 12 20 C10.7937748 16.38132441 10.89183082 13.07493749 10.9375 9.3125 C10.94201172 8.61060547 10.94652344 7.90871094 10.95117188 7.18554688 C10.96293073 5.45699462 10.98086546 3.72848635 11 2 C10.06027344 2.03480469 10.06027344 2.03480469 9.1015625 2.0703125 C7.87566406 2.09738281 7.87566406 2.09738281 6.625 2.125 C5.81289062 2.14820313 5.00078125 2.17140625 4.1640625 2.1953125 C2 2 2 2 0 0 Z " fill="#4D5861" transform="translate(197,140)"/>
<path d="M0 0 C0.66 0.33 1.32 0.66 2 1 C1.484375 1.33 0.96875 1.66 0.4375 2 C-1.33227513 4.46229584 -1.07158882 5.25492998 -0.6875 8.1875 C-0.460625 9.445625 -0.23375 10.70375 0 12 C-0.99 12.33 -1.98 12.66 -3 13 C-3.66 12.67 -4.32 12.34 -5 12 C-4.58955515 18.57791873 -4.13391403 24.74051886 -2 31 C-5.72010471 28.2944693 -6.28350988 24.29097974 -7 20 C-7.52793408 14.19272517 -6.42670248 9.25954764 -4 4 C-1.8125 1.4375 -1.8125 1.4375 0 0 Z " fill="#56548E" transform="translate(206,30)"/>
<path d="M0 0 C1.33332095 2.6666419 0.67102033 4.16680303 0 7 C-0.66 7 -1.32 7 -2 7 C-2 7.66 -2 8.32 -2 9 C-2.66 9 -3.32 9 -4 9 C-4 9.66 -4 10.32 -4 11 C-5.98 11 -7.96 11 -10 11 C-10.33 10.01 -10.66 9.02 -11 8 C-10.34 8 -9.68 8 -9 8 C-9 7.01 -9 6.02 -9 5 C-6.04920467 2.77051019 -3.51420376 1.17140125 0 0 Z " fill="#03005D" transform="translate(246,80)"/>
<path d="M0 0 C5.5098772 1.79071009 5.5098772 1.79071009 7.79296875 2.765625 C17.89763613 7.01583561 27.43802439 6.03179499 38 4 C37 6 37 6 35.3137207 6.64160156 C29.15086253 8.03923632 23.47655997 8.1338603 17.1875 7.75 C16.26001953 7.71003906 15.33253906 7.67007813 14.37695312 7.62890625 C10.0328492 7.39713719 6.84029231 7.18002587 3 5 C3 4.01 3 3.02 3 2 C2.01 1.67 1.02 1.34 0 1 C0 0.67 0 0.34 0 0 Z " fill="#676897" transform="translate(196,82)"/>
<path d="M0 0 C2.31 0 4.62 0 7 0 C7 6.27 7 12.54 7 19 C7.99 19.33 8.98 19.66 10 20 C10 20.99 10 21.98 10 23 C9.34 23 8.68 23 8 23 C8 22.34 8 21.68 8 21 C7.34 21 6.68 21 6 21 C6 14.4 6 7.8 6 1 C4.35 1 2.7 1 1 1 C1 1.66 1 2.32 1 3 C1.66 3 2.32 3 3 3 C3.05392397 5.77109307 3.09363455 8.54113818 3.125 11.3125 C3.14175781 12.09818359 3.15851563 12.88386719 3.17578125 13.69335938 C3.18222656 14.45068359 3.18867188 15.20800781 3.1953125 15.98828125 C3.20578613 16.68477783 3.21625977 17.38127441 3.22705078 18.09887695 C3 20 3 20 1 23 C0.34 23 -0.32 23 -1 23 C-0.67 21.68 -0.34 20.36 0 19 C0.66 19 1.32 19 2 19 C1.88566637 16.74943278 1.75813564 14.49953326 1.625 12.25 C1.55539063 10.99703125 1.48578125 9.7440625 1.4140625 8.453125 C1.04676696 5.39001879 0.60288714 3.58025734 -1 1 C-0.67 0.67 -0.34 0.34 0 0 Z " fill="#A6ACB2" transform="translate(125,139)"/>
<path d="M0 0 C0.66 0 1.32 0 2 0 C3.83435809 3.66871618 3.37336838 8.25273709 3.51757812 12.32226562 C3.60890568 14.21946625 3.79713434 16.11146711 4 18 C4.66 18.33 5.32 18.66 6 19 C6 19.66 6 20.32 6 21 C3.03 21 0.06 21 -3 21 C-2 17 -2 17 0 15 C0.14497985 12.41935871 0.18677545 9.95056116 0.125 7.375 C0.11146484 6.31539062 0.11146484 6.31539062 0.09765625 5.234375 C0.07407603 3.48943902 0.03820461 1.74467705 0 0 Z " fill="#5E6A72" transform="translate(165,141)"/>
<path d="M0 0 C2.27620512 1.51446519 4.02981166 3.08165872 6 5 C5.67 5.66 5.34 6.32 5 7 C4.01 6.67 3.02 6.34 2 6 C2 5.34 2 4.68 2 4 C1.46375 3.87625 0.9275 3.7525 0.375 3.625 C-2.4638286 2.87793984 -5.22223202 1.94696636 -8 1 C-8 0.34 -8 -0.32 -8 -1 C-9.89611434 -0.85786703 -11.79188394 -0.71113093 -13.6875 -0.5625 C-14.74324219 -0.48128906 -15.79898438 -0.40007813 -16.88671875 -0.31640625 C-19.65086297 -0.03548319 -22.28945741 0.40156852 -25 1 C-24 -1 -24 -1 -20.875 -2.125 C-13.36931583 -3.81983191 -7.0460557 -2.96188877 0 0 Z " fill="#636794" transform="translate(234,28)"/>
<path d="M0 0 C0.66 0 1.32 0 2 0 C2 2.64 2 5.28 2 8 C-2.62 8 -7.24 8 -12 8 C-12 6.02 -12 4.04 -12 2 C-11.01 2 -10.02 2 -9 2 C-9 2.99 -9 3.98 -9 5 C-6.36 5 -3.72 5 -1 5 C-0.67 3.35 -0.34 1.7 0 0 Z " fill="#5B646B" transform="translate(310,154)"/>
<path d="M0 0 C-0.33 1.65 -0.66 3.3 -1 5 C-1.66 4.67 -2.32 4.34 -3 4 C-6.87952544 6.62948691 -6.87952544 6.62948691 -8.8125 10.75 C-8.874375 11.4925 -8.93625 12.235 -9 13 C-9.99 13.33 -10.98 13.66 -12 14 C-12.33 18.62 -12.66 23.24 -13 28 C-13.33 28 -13.66 28 -14 28 C-15.73968463 13.8729224 -15.73968463 13.8729224 -12 9 C-3.77238806 0 -3.77238806 0 0 0 Z " fill="#7677A1" transform="translate(182,27)"/>
<path d="M0 0 C1.79244141 0.01740234 1.79244141 0.01740234 3.62109375 0.03515625 C5.41740234 0.04869141 5.41740234 0.04869141 7.25 0.0625 C8.17683594 0.07410156 9.10367187 0.08570313 10.05859375 0.09765625 C10.05859375 2.07765625 10.05859375 4.05765625 10.05859375 6.09765625 C9.06859375 6.09765625 8.07859375 6.09765625 7.05859375 6.09765625 C7.05859375 4.77765625 7.05859375 3.45765625 7.05859375 2.09765625 C4.41859375 2.09765625 1.77859375 2.09765625 -0.94140625 2.09765625 C-0.94140625 4.40765625 -0.94140625 6.71765625 -0.94140625 9.09765625 C-1.93140625 8.76765625 -2.92140625 8.43765625 -3.94140625 8.09765625 C-3.98382348 5.7647085 -3.98233562 3.43063058 -3.94140625 1.09765625 C-2.94140625 0.09765625 -2.94140625 0.09765625 0 0 Z " fill="#535D63" transform="translate(301.94140625,139.90234375)"/>
<path d="M0 0 C1.421875 1.77734375 1.421875 1.77734375 2.75 3.9375 C3.19859375 4.64777344 3.6471875 5.35804687 4.109375 6.08984375 C4.40328125 6.72019531 4.6971875 7.35054687 5 8 C4.67 8.66 4.34 9.32 4 10 C1.5625 9.3125 1.5625 9.3125 -1 8 C-1.8125 5.375 -1.8125 5.375 -2 3 C-2.66 3 -3.32 3 -4 3 C-3.79375 3.598125 -3.5875 4.19625 -3.375 4.8125 C-3 7 -3 7 -5 10 C-5.66 10 -6.32 10 -7 10 C-7.34684009 4.71068868 -7.34684009 4.71068868 -7 2 C-4.39920807 -0.95952185 -3.80493073 -1.26831024 0 0 Z " fill="#06075E" transform="translate(197,56)"/>
<path d="M0 0 C2.375 0.8125 2.375 0.8125 3.375 2.8125 C3.44694869 5.69620333 3.46791708 8.55489664 3.4375 11.4375 C3.43298828 12.23929688 3.42847656 13.04109375 3.42382812 13.8671875 C3.41203168 15.84899006 3.39409605 17.83075433 3.375 19.8125 C4.035 19.8125 4.695 19.8125 5.375 19.8125 C5.705 21.1325 6.035 22.4525 6.375 23.8125 C5.715 23.8125 5.055 23.8125 4.375 23.8125 C4.375 23.1525 4.375 22.4925 4.375 21.8125 C3.385 21.4825 2.395 21.1525 1.375 20.8125 C1.375 14.5425 1.375 8.2725 1.375 1.8125 C-0.935 2.1425 -3.245 2.4725 -5.625 2.8125 C-3.74442913 0.33806465 -3.19312156 -0.22808011 0 0 Z " fill="#A0A8B4" transform="translate(252.625,138.1875)"/>
<path d="M0 0 C1.65 0 3.3 0 5 0 C4.71125 0.680625 4.4225 1.36125 4.125 2.0625 C3.75375 3.031875 3.3825 4.00125 3 5 C2.608125 6.010625 2.21625 7.02125 1.8125 8.0625 C0.31939802 13.27099529 1.35716591 18.70964921 2 24 C1.01 23.67 0.02 23.34 -1 23 C-1.02690844 20.37493198 -1.04679404 17.75013827 -1.0625 15.125 C-1.07087891 14.37863281 -1.07925781 13.63226563 -1.08789062 12.86328125 C-1.11328125 7.2265625 -1.11328125 7.2265625 0 5 C-0.66 4.67 -1.32 4.34 -2 4 C-1.34 2.68 -0.68 1.36 0 0 Z " fill="#3A397C" transform="translate(194,32)"/>
<path d="M0 0 C1.65 0 3.3 0 5 0 C5 0.99 5 1.98 5 3 C5.99 3 6.98 3 8 3 C7.67 4.32 7.34 5.64 7 7 C6.34 7 5.68 7 5 7 C5.02320313 7.68707031 5.04640625 8.37414062 5.0703125 9.08203125 C5.08835938 9.98308594 5.10640625 10.88414062 5.125 11.8125 C5.14820313 12.70582031 5.17140625 13.59914062 5.1953125 14.51953125 C5 17 5 17 3 20 C2.67 14.06 2.34 8.12 2 2 C1.34 2 0.68 2 0 2 C0 1.34 0 0.68 0 0 Z " fill="#4E5860" transform="translate(216,140)"/>
<path d="M0 0 C1.65 0 3.3 0 5 0 C5 7.92 5 15.84 5 24 C4.34 24.33 3.68 24.66 3 25 C3 17.41 3 9.82 3 2 C2.01 2 1.02 2 0 2 C0 1.34 0 0.68 0 0 Z " fill="#4B575E" transform="translate(284,129)"/>
<path d="M0 0 C0.66 0 1.32 0 2 0 C2 0.66 2 1.32 2 2 C2.99 2 3.98 2 5 2 C5 2.99 5 3.98 5 5 C5.86625 5.185625 5.86625 5.185625 6.75 5.375 C9.02335767 6.00648824 10.9253529 6.88858191 13 8 C12.34 8 11.68 8 11 8 C11 8.66 11 9.32 11 10 C11.99 10.33 12.98 10.66 14 11 C13.34 11 12.68 11 12 11 C12 11.66 12 12.32 12 13 C8.64065168 11.56875447 6.68207173 9.82271696 4.3125 7.0625 C3.71050781 6.37285156 3.10851562 5.68320313 2.48828125 4.97265625 C1 3 1 3 0 0 Z " fill="#4C4D7D" transform="translate(167,89)"/>
<path d="M0 0 C0.33 0 0.66 0 1 0 C1.07347656 1.71509766 1.07347656 1.71509766 1.1484375 3.46484375 C1.22345189 4.95575473 1.29900028 6.44663892 1.375 7.9375 C1.4059375 8.69224609 1.436875 9.44699219 1.46875 10.22460938 C1.5726315 12.15507395 1.77895614 14.07942081 2 16 C2.66 16.33 3.32 16.66 4 17 C4 17.66 4 18.32 4 19 C1.69 19 -0.62 19 -3 19 C-3 18.34 -3 17.68 -3 17 C-2.34 17 -1.68 17 -1 17 C-1.01160156 15.85660156 -1.02320313 14.71320313 -1.03515625 13.53515625 C-1.04453288 12.04427246 -1.05363321 10.55338691 -1.0625 9.0625 C-1.07087891 8.30775391 -1.07925781 7.55300781 -1.08789062 6.77539062 C-1.09652441 4.85005687 -1.05224333 2.92464419 -1 1 C-0.67 0.67 -0.34 0.34 0 0 Z " fill="#4C555C" transform="translate(240,143)"/>
<path d="M0 0 C5.19209404 -0.21192221 9.126739 0.4087311 14 2 C14 2.66 14 3.32 14 4 C9.05 4.33 4.1 4.66 -1 5 C-0.67 3.35 -0.34 1.7 0 0 Z " fill="#545088" transform="translate(210,20)"/>
<path d="M0 0 C1.32 0.33 2.64 0.66 4 1 C4 2.98 4 4.96 4 7 C-0.95 7 -5.9 7 -11 7 C-10.67 6.34 -10.34 5.68 -10 5 C-6.7 5 -3.4 5 0 5 C0 3.35 0 1.7 0 0 Z " fill="#4D555C" transform="translate(275,155)"/>
<path d="M0 0 C1.91619141 0.24556641 1.91619141 0.24556641 3.87109375 0.49609375 C8.94968256 1.0603814 13.95796735 1.11398093 19.0625 1.0625 C19.92810547 1.05798828 20.79371094 1.05347656 21.68554688 1.04882812 C23.79039539 1.03719913 25.89520758 1.01927073 28 1 C27.67 2.32 27.34 3.64 27 5 C25.68 5.33 24.36 5.66 23 6 C23 5.01 23 4.02 23 3 C22.44538086 3.01047363 21.89076172 3.02094727 21.31933594 3.03173828 C18.79627041 3.07342004 16.27327747 3.09936438 13.75 3.125 C12.44095703 3.15013672 12.44095703 3.15013672 11.10546875 3.17578125 C10.26113281 3.18222656 9.41679687 3.18867187 8.546875 3.1953125 C7.77182617 3.20578613 6.99677734 3.21625977 6.19824219 3.22705078 C3.74116461 2.97326556 2.12688458 2.22444152 0 1 C0 0.67 0 0.34 0 0 Z " fill="#53508A" transform="translate(204,100)"/>
<path d="M0 0 C0.33 0 0.66 0 1 0 C1 5.28 1 10.56 1 16 C1.99 16 2.98 16 4 16 C4 16.66 4 17.32 4 18 C1.36 18 -1.28 18 -4 18 C-4 17.01 -4 16.02 -4 15 C-3.01 15 -2.02 15 -1 15 C-1.01160156 14.00097656 -1.02320312 13.00195312 -1.03515625 11.97265625 C-1.04869141 10.03712891 -1.04869141 10.03712891 -1.0625 8.0625 C-1.07410156 6.77472656 -1.08570312 5.48695313 -1.09765625 4.16015625 C-1 1 -1 1 0 0 Z " fill="#475662" transform="translate(113,144)"/>
<path d="M0 0 C0.66 0 1.32 0 2 0 C2.268125 0.639375 2.53625 1.27875 2.8125 1.9375 C3.88667752 4.33131686 3.88667752 4.33131686 7 5 C7 5.66 7 6.32 7 7 C7.66 7 8.32 7 9 7 C9 7.99 9 8.98 9 10 C6.03 9.01 3.06 8.02 0 7 C0 6.34 0 5.68 0 5 C-0.66 5 -1.32 5 -2 5 C-1.34 3.35 -0.68 1.7 0 0 Z " fill="#04035B" transform="translate(183,75)"/>
<path d="M0 0 C4.81981838 4.1312729 7.7847751 9.03999014 10 15 C9.67 15.66 9.34 16.32 9 17 C7.0625 16.1875 7.0625 16.1875 5 15 C4.67 14.01 4.34 13.02 4 12 C4.66 12 5.32 12 6 12 C5.54625 11.62875 5.0925 11.2575 4.625 10.875 C2.51549349 8.44095403 1.89578743 6.07127117 1 3 C0.67 2.01 0.34 1.02 0 0 Z " fill="#4C4C84" transform="translate(240,35)"/>
<path d="M0 0 C4 0 4 0 5.75 1.3125 C7 3 7 3 7 6 C5.02 6.33 3.04 6.66 1 7 C0.67 6.01 0.34 5.02 0 4 C-0.66 4 -1.32 4 -2 4 C-2 3.34 -2 2.68 -2 2 C-1.34 2 -0.68 2 0 2 C0 1.34 0 0.68 0 0 Z " fill="#030258" transform="translate(195,85)"/>
<path d="M0 0 C3.78716158 1.50362259 7.55245187 3.05487001 11.3125 4.625 C12.38113281 5.07101563 13.44976562 5.51703125 14.55078125 5.9765625 C15.76314453 6.48316406 15.76314453 6.48316406 17 7 C17 7.33 17 7.66 17 8 C14.36 8 11.72 8 9 8 C9 7.34 9 6.68 9 6 C8.2575 5.87625 7.515 5.7525 6.75 5.625 C4.19858515 5.04513299 2.2732427 4.26291261 0 3 C0 2.01 0 1.02 0 0 Z " fill="#58588E" transform="translate(185,92)"/>
<path d="M0 0 C4 2 8 4 12 6 C12 6.33 12 6.66 12 7 C10.02 7.33 8.04 7.66 6 8 C6 7.34 6 6.68 6 6 C4.02 6.99 4.02 6.99 2 8 C-0.1519437 4.77208445 -0.20086443 3.71599191 0 0 Z " fill="#2E2D74" transform="translate(202,66)"/>
<path d="M0 0 C1.10362817 3.3108845 0.82873923 3.80424529 0 7 C-0.33682401 14.40022163 0.00559545 21.66626647 1 29 C-3.18733652 24.81266348 -2.39442184 16.9479232 -2.75 11.25 C-2.81832031 10.38761719 -2.88664063 9.52523437 -2.95703125 8.63671875 C-3.00730469 7.81300781 -3.05757812 6.98929688 -3.109375 6.140625 C-3.16061523 5.39329102 -3.21185547 4.64595703 -3.26464844 3.87597656 C-3.17731445 3.2569043 -3.08998047 2.63783203 -3 2 C-2.01 1.34 -1.02 0.68 0 0 Z " fill="#8583A8" transform="translate(178,33)"/>
<path d="M0 0 C-0.99 0.495 -0.99 0.495 -2 1 C-2 1.66 -2 2.32 -2 3 C-2.99 3 -3.98 3 -5 3 C-4.67 3.66 -4.34 4.32 -4 5 C-10.75 3.375 -10.75 3.375 -13 0 C-8.34462607 -0.83796731 -4.62921525 -1.0161692 0 0 Z " fill="#2D2D77" transform="translate(222,66)"/>
<path d="M0 0 C0.05392397 2.77109307 0.09363455 5.54113818 0.125 8.3125 C0.14175781 9.09818359 0.15851563 9.88386719 0.17578125 10.69335938 C0.18222656 11.45068359 0.18867188 12.20800781 0.1953125 12.98828125 C0.20578613 13.68477783 0.21625977 14.38127441 0.22705078 15.09887695 C0 17 0 17 -2 20 C-2.66 20 -3.32 20 -4 20 C-3.67 18.68 -3.34 17.36 -3 16 C-2.34 16 -1.68 16 -1 16 C-1 11.38 -1 6.76 -1 2 C-2.65 2.66 -4.3 3.32 -6 4 C-6 3.01 -6 2.02 -6 1 C-3.92446352 0.4465236 -2.15634036 0 0 0 Z " fill="#9BA2A7" transform="translate(252,142)"/>
<path d="M0 0 C0.33 0 0.66 0 1 0 C1 9.24 1 18.48 1 28 C1.66 28.33 2.32 28.66 3 29 C1.68 29 0.36 29 -1 29 C-0.67 19.43 -0.34 9.86 0 0 Z " fill="#5B666F" transform="translate(114,131)"/>
<path d="M0 0 C0.99 0.33 1.98 0.66 3 1 C3 2.98 3 4.96 3 7 C2.34 7 1.68 7 1 7 C1 6.34 1 5.68 1 5 C-2.63 5 -6.26 5 -10 5 C-10 4.67 -10 4.34 -10 4 C-7.36 4 -4.72 4 -2 4 C-2 3.01 -2 2.02 -2 1 C-1.34 0.67 -0.68 0.34 0 0 Z " fill="#939AA0" transform="translate(189,155)"/>
<path d="M0 0 C0.66 0.33 1.32 0.66 2 1 C1.67 1.66 1.34 2.32 1 3 C3.64 2.67 6.28 2.34 9 2 C9 2.99 9 3.98 9 5 C3.06 5.495 3.06 5.495 -3 6 C-1 1 -1 1 0 0 Z " fill="#949AA2" transform="translate(266,155)"/>
<path d="M0 0 C0.66 0.33 1.32 0.66 2 1 C2.6328125 3.06640625 2.6328125 3.06640625 3.125 5.5625 C3.29257813 6.38878906 3.46015625 7.21507813 3.6328125 8.06640625 C3.75398437 8.70449219 3.87515625 9.34257813 4 10 C3.34 9.67 2.68 9.34 2 9 C2 8.01 2 7.02 2 6 C1.34 6 0.68 6 0 6 C0 8.97 0 11.94 0 15 C-0.33 15 -0.66 15 -1 15 C-1.02685412 12.68756208 -1.04632841 10.3750373 -1.0625 8.0625 C-1.07410156 6.77472656 -1.08570313 5.48695312 -1.09765625 4.16015625 C-1 1 -1 1 0 0 Z " fill="#8386AF" transform="translate(161,57)"/>
<path d="M0 0 C1.2065625 0.0309375 1.2065625 0.0309375 2.4375 0.0625 C3 2 3 2 3.4375 4.0625 C2.4375 5.0625 2.4375 5.0625 -0.125 5.125 C-1.3315625 5.0940625 -1.3315625 5.0940625 -2.5625 5.0625 C-3.125 3.125 -3.125 3.125 -3.5625 1.0625 C-2.5625 0.0625 -2.5625 0.0625 0 0 Z " fill="#9EA1A2" transform="translate(129.5625,130.9375)"/>
<path d="M0 0 C0.99 0.33 1.98 0.66 3 1 C1.92456217 1.98783194 0.83926783 2.96493943 -0.25 3.9375 C-1.15492188 4.75541016 -1.15492188 4.75541016 -2.078125 5.58984375 C-4.14009963 7.10279668 -5.45713506 7.7609707 -8 8 C-8.99 7.34 -9.98 6.68 -11 6 C-10.37351563 5.73445313 -9.74703125 5.46890625 -9.1015625 5.1953125 C-8.28429687 4.84210938 -7.46703125 4.48890625 -6.625 4.125 C-5.40683594 3.60292969 -5.40683594 3.60292969 -4.1640625 3.0703125 C-1.86197701 2.07553933 -1.86197701 2.07553933 0 0 Z " fill="#60679F" transform="translate(243,78)"/>
<path d="M0 0 C2 1.625 2 1.625 4 4 C4.25 7.25 4.25 7.25 4 10 C4.66 10.33 5.32 10.66 6 11 C6.625 13.0625 6.625 13.0625 7 15 C6.67 14.34 6.34 13.68 6 13 C5.34 13 4.68 13 4 13 C-0.59225513 4.738041 -0.59225513 4.738041 0 0 Z " fill="#0D0B55" transform="translate(186,56)"/>
<path d="M0 0 C0 0.66 0 1.32 0 2 C-1.423125 2.37125 -1.423125 2.37125 -2.875 2.75 C-6.43559968 4.17423987 -6.51742659 4.71715887 -8 8 C-10.125 8.75 -10.125 8.75 -12 9 C-10.6284197 6.04582705 -9.13179822 3.47288594 -7 1 C-4 0 -4 0 0 0 Z " fill="#5A5C8C" transform="translate(200,20)"/>
<path d="M0 0 C0 2.31 0 4.62 0 7 C-0.99 7 -1.98 7 -3 7 C-3 5.35 -3 3.7 -3 2 C-4.98 2 -6.96 2 -9 2 C-9 1.67 -9 1.34 -9 1 C-5.94152152 0.45627049 -3.11227195 0 0 0 Z " fill="#59646D" transform="translate(124,129)"/>
<path d="M0 0 C1.65 0.33 3.3 0.66 5 1 C1.67692308 4.93846154 1.67692308 4.93846154 -1.75 5.25 C-2.4925 5.1675 -3.235 5.085 -4 5 C-4 4.34 -4 3.68 -4 3 C-3.01 3 -2.02 3 -1 3 C-0.67 2.01 -0.34 1.02 0 0 Z " fill="#030352" transform="translate(228,80)"/>
<path d="M0 0 C4.18423892 3.50897269 8.19588166 7.08060535 12 11 C9.69 10.67 7.38 10.34 5 10 C4.731875 9.236875 4.46375 8.47375 4.1875 7.6875 C3.04199033 5.09503074 2.00288478 3.91184456 0 2 C0 1.34 0 0.68 0 0 Z " fill="#5D5A89" transform="translate(173,81)"/>
<path d="M0 0 C2.375 0.625 2.375 0.625 5 2 C6.3125 5.125 6.3125 5.125 7 8 C6.01 7.67 5.02 7.34 4 7 C4 5.68 4 4.36 4 3 C3.67 3.99 3.34 4.98 3 6 C2.34 6 1.68 6 1 6 C1 5.01 1 4.02 1 3 C0.34 2.67 -0.32 2.34 -1 2 C-0.67 1.34 -0.34 0.68 0 0 Z " fill="#00014C" transform="translate(192,65)"/>
<path d="M0 0 C0.98316039 3.40388303 1.29411056 6.72259589 1.5625 10.25 C1.64628906 11.32765625 1.73007813 12.4053125 1.81640625 13.515625 C1.87699219 14.33546875 1.93757812 15.1553125 2 16 C1.01 15.67 0.02 15.34 -1 15 C-1.02703381 13.06257659 -1.04641125 11.12504521 -1.0625 9.1875 C-1.07410156 8.10855469 -1.08570313 7.02960937 -1.09765625 5.91796875 C-1 3 -1 3 0 0 Z " fill="#71709E" transform="translate(194,40)"/>
<path d="M0 0 C0.33 0.66 0.66 1.32 1 2 C1.66 2 2.32 2 3 2 C3 3.32 3 4.64 3 6 C-1.07142857 9 -1.07142857 9 -4 9 C-3.67 8.01 -3.34 7.02 -3 6 C-2.34 5.67 -1.68 5.34 -1 5 C-0.34444881 2.47266765 -0.34444881 2.47266765 0 0 Z " fill="#575F65" transform="translate(275,142)"/>
<path d="M0 0 C0.66 0 1.32 0 2 0 C2 0.66 2 1.32 2 2 C3.98 1.34 5.96 0.68 8 0 C5.24479785 2.95929119 2.53372712 5.03681826 -1 7 C-1.125 2.25 -1.125 2.25 0 0 Z " fill="#5D5C8D" transform="translate(200,25)"/>
<path d="M0 0 C0.33 0 0.66 0 1 0 C1.12375 0.969375 1.2475 1.93875 1.375 2.9375 C1.58125 3.948125 1.7875 4.95875 2 6 C2.66 6.33 3.32 6.66 4 7 C4 7.66 4 8.32 4 9 C1.69 9 -0.62 9 -3 9 C-2.67 8.01 -2.34 7.02 -2 6 C-1.34 6 -0.68 6 0 6 C0 4.02 0 2.04 0 0 Z " fill="#4A535B" transform="translate(253,153)"/>
<path d="M0 0 C0.33 0 0.66 0 1 0 C1.05397335 2.4377963 1.09365616 4.87439685 1.125 7.3125 C1.15013672 8.34793945 1.15013672 8.34793945 1.17578125 9.40429688 C1.21217794 13.17135396 1.14378864 14.78431704 -1 18 C-1.66 18 -2.32 18 -3 18 C-2.67 16.68 -2.34 15.36 -2 14 C-1.34 14 -0.68 14 0 14 C0 9.38 0 4.76 0 0 Z " fill="#B6BBC0" transform="translate(127,144)"/>
<path d="M0 0 C0.66 0 1.32 0 2 0 C2 0.66 2 1.32 2 2 C3.65 2 5.3 2 7 2 C7.309375 2.78375 7.61875 3.5675 7.9375 4.375 C8.92875038 6.92330128 8.92875038 6.92330128 10 9 C6.55729549 7.46990911 3.81074178 5.5068778 1 3 C0.67 2.01 0.34 1.02 0 0 Z " fill="#585888" transform="translate(181,80)"/>
<path d="M0 0 C2 2.66666667 4 5.33333333 6 8 C5.67 8.66 5.34 9.32 5 10 C2.525 9.01 2.525 9.01 0 8 C0 5.36 0 2.72 0 0 Z " fill="#646390" transform="translate(196,56)"/>
<path d="M0 0 C0.33 0.66 0.66 1.32 1 2 C-0.1796875 4.3828125 -0.1796875 4.3828125 -1.875 7.125 C-2.42929688 8.03507812 -2.98359375 8.94515625 -3.5546875 9.8828125 C-4.03164062 10.58148438 -4.50859375 11.28015625 -5 12 C-5.33 12 -5.66 12 -6 12 C-6 10.35 -6 8.7 -6 7 C-5.34 7 -4.68 7 -4 7 C-4 6.34 -4 5.68 -4 5 C-3.34 5 -2.68 5 -2 5 C-1.34 3.35 -0.68 1.7 0 0 Z " fill="#7675A0" transform="translate(248,82)"/>
<path d="M0 0 C0 1.98 0 3.96 0 6 C-0.66 6 -1.32 6 -2 6 C-2 5.01 -2 4.02 -2 3 C-3.32 3 -4.64 3 -6 3 C-6 2.34 -6 1.68 -6 1 C-4 0 -4 0 0 0 Z " fill="#545C62" transform="translate(231,140)"/>
<path d="M0 0 C2.64 0.33 5.28 0.66 8 1 C8 1.33 8 1.66 8 2 C6.02 2 4.04 2 2 2 C2 3.65 2 5.3 2 7 C1.34 7 0.68 7 0 7 C0 4.69 0 2.38 0 0 Z " fill="#4E5A63" transform="translate(103,129)"/>
<path d="M0 0 C0.6875 1.8125 0.6875 1.8125 1 4 C-0.4375 5.75 -0.4375 5.75 -2 7 C-2 6.34 -2 5.68 -2 5 C-3.32 5.33 -4.64 5.66 -6 6 C-6 5.34 -6 4.68 -6 4 C-4.03852126 2.61061923 -2.03833424 1.2739589 0 0 Z " fill="#090C56" transform="translate(243,81)"/>
<path d="M0 0 C1.33332095 2.6666419 0.67102033 4.16680303 0 7 C-0.66 7 -1.32 7 -2 7 C-2.33 7.66 -2.66 8.32 -3 9 C-3.75 6.75 -3.75 6.75 -4 4 C-2.0625 1.6875 -2.0625 1.6875 0 0 Z " fill="#04034C" transform="translate(246,80)"/>
<path d="M0 0 C2.50037734 2.17424117 3.43628586 3.73045798 4 7 C4.66 7 5.32 7 6 7 C6 7.66 6 8.32 6 9 C5.01 9 4.02 9 3 9 C0.60178077 6.60178077 0.01825198 5.76658296 -0.0625 2.375 C-0.041875 1.59125 -0.02125 0.8075 0 0 Z " fill="#656598" transform="translate(180,64)"/>
<path d="M0 0 C0.33 0 0.66 0 1 0 C1 1.98 1 3.96 1 6 C1.99 6.33 2.98 6.66 4 7 C4 7.66 4 8.32 4 9 C2.02 9 0.04 9 -2 9 C-1.34 6.03 -0.68 3.06 0 0 Z " fill="#49535B" transform="translate(142,153)"/>
<path d="M0 0 C2.97 0.495 2.97 0.495 6 1 C5.67 2.32 5.34 3.64 5 5 C3.68 5 2.36 5 1 5 C0.67 3.35 0.34 1.7 0 0 Z " fill="#020152" transform="translate(192,99)"/>
<path d="M0 0 C2.97 0.495 2.97 0.495 6 1 C6 1.66 6 2.32 6 3 C2.37 3 -1.26 3 -5 3 C-5 2.67 -5 2.34 -5 2 C-3.35 2 -1.7 2 0 2 C0 1.34 0 0.68 0 0 Z " fill="#9898B7" transform="translate(218,21)"/>
<path d="M0 0 C2.96404505 2.80804268 5.44499019 5.18315774 7 9 C3.46352496 7.32482761 2.2088437 6.50719183 0.6875 2.8125 C0.460625 1.884375 0.23375 0.95625 0 0 Z " fill="#0B084F" transform="translate(171,80)"/>
<path d="M0 0 C0.33 0 0.66 0 1 0 C0.8864371 1.64666203 0.75882619 3.29236082 0.625 4.9375 C0.52058594 6.31228516 0.52058594 6.31228516 0.4140625 7.71484375 C0.27742187 8.46894531 0.14078125 9.22304687 0 10 C-0.99 10.495 -0.99 10.495 -2 11 C-2.05399736 9.54207116 -2.09279177 8.08357288 -2.125 6.625 C-2.15980469 5.40683594 -2.15980469 5.40683594 -2.1953125 4.1640625 C-2 2 -2 2 0 0 Z " fill="#444477" transform="translate(250,71)"/>
<path d="M0 0 C1.32 0 2.64 0 4 0 C3.67 1.65 3.34 3.3 3 5 C2.01 5.33 1.02 5.66 0 6 C0 4.02 0 2.04 0 0 Z " fill="#090460" transform="translate(201,48)"/>
<path d="M0 0 C1.32 0 2.64 0 4 0 C4 0.99 4 1.98 4 3 C2.02 3.33 0.04 3.66 -2 4 C-1.34 2.68 -0.68 1.36 0 0 Z " fill="#0A0A57" transform="translate(223,103)"/>
<path d="M0 0 C1.32 0.33 2.64 0.66 4 1 C3.34 1 2.68 1 2 1 C2 1.66 2 2.32 2 3 C2.99 3.33 3.98 3.66 5 4 C4.34 4 3.68 4 3 4 C3 4.66 3 5.32 3 6 C2.01 5.67 1.02 5.34 0 5 C0 3.35 0 1.7 0 0 Z " fill="#2C2E75" transform="translate(176,96)"/>
<path d="M0 0 C0.33 0.66 0.66 1.32 1 2 C-0.98 4.31 -2.96 6.62 -5 9 C-5.33 8.01 -5.66 7.02 -6 6 C-4.02 4.02 -2.04 2.04 0 0 Z " fill="#0F0F4D" transform="translate(179,29)"/>
<path d="M0 0 C2.64 0.33 5.28 0.66 8 1 C8 1.66 8 2.32 8 3 C5.36 3 2.72 3 0 3 C0 2.01 0 1.02 0 0 Z " fill="#55595D" transform="translate(109,159)"/>
<path d="M0 0 C0 0.66 0 1.32 0 2 C-2.31 2 -4.62 2 -7 2 C-7 1.34 -7 0.68 -7 0 C-4.3333581 -1.33332095 -2.83319697 -0.67102033 0 0 Z " fill="#4A5158" transform="translate(171,160)"/>
<path d="M0 0 C1.32 0.33 2.64 0.66 4 1 C4 2.98 4 4.96 4 7 C3.01 7 2.02 7 1 7 C1 6.01 1 5.02 1 4 C1.66 4 2.32 4 3 4 C3 3.34 3 2.68 3 2 C2.01 2 1.02 2 0 2 C0 1.34 0 0.68 0 0 Z " fill="#98A2AA" transform="translate(275,155)"/>
<path d="M0 0 C0.33 0 0.66 0 1 0 C1.144375 1.2375 1.28875 2.475 1.4375 3.75 C1.78688502 6.56504499 2.20379366 9.2701497 3 12 C2.34 12 1.68 12 1 12 C-0.26237731 9.47524538 -0.09856404 7.68799534 -0.0625 4.875 C-0.05347656 3.96492187 -0.04445312 3.05484375 -0.03515625 2.1171875 C-0.02355469 1.41851562 -0.01195312 0.71984375 0 0 Z " fill="#CCDBDE" transform="translate(145,150)"/>
<path d="M0 0 C0.33 0 0.66 0 1 0 C1 1.98 1 3.96 1 6 C-0.32 6 -1.64 6 -3 6 C-2.67 4.68 -2.34 3.36 -2 2 C-1.67 2.33 -1.34 2.66 -1 3 C-0.67 2.01 -0.34 1.02 0 0 Z " fill="#03034A" transform="translate(166,74)"/>
<path d="M0 0 C2.9719385 1.12451727 5.33440687 2.22293791 8 4 C6.02 4.33 4.04 4.66 2 5 C2 4.34 2 3.68 2 3 C1.34 3 0.68 3 0 3 C0 2.01 0 1.02 0 0 Z " fill="#5D618C" transform="translate(206,69)"/>
<path d="M0 0 C0.66 0 1.32 0 2 0 C2.66 1.98 3.32 3.96 4 6 C3.34 6 2.68 6 2 6 C1.67 6.66 1.34 7.32 1 8 C0.67 5.36 0.34 2.72 0 0 Z " fill="#14145B" transform="translate(161,63)"/>
<path d="M0 0 C-1.36983503 3.16115776 -1.9890638 3.9927092 -5 6 C-5.66 5.34 -6.32 4.68 -7 4 C-2.25 0 -2.25 0 0 0 Z " fill="#2E2E75" transform="translate(243,64)"/>
<path d="M0 0 C0.33 1.32 0.66 2.64 1 4 C-0.98 4.66 -2.96 5.32 -5 6 C-5.33 5.34 -5.66 4.68 -6 4 C-4.68 4 -3.36 4 -2 4 C-2 3.34 -2 2.68 -2 2 C-2.66 1.67 -3.32 1.34 -4 1 C-2 0 -2 0 0 0 Z " fill="#151158" transform="translate(210,20)"/>
<path d="" fill="#FFFFFF" transform="translate(0,0)"/>
</svg>
