<?xml version="1.0" encoding="UTF-8"?>
<svg version="1.1" xmlns="http://www.w3.org/2000/svg" width="229" height="148">
<path d="M0 0 C75.57 0 151.14 0 229 0 C229 48.84 229 97.68 229 148 C153.43 148 77.86 148 0 148 C0 99.16 0 50.32 0 0 Z " fill="#FEFEFE" transform="translate(0,0)"/>
<path d="M0 0 C0.99 0 1.98 0 3 0 C3.12375 1.134375 3.2475 2.26875 3.375 3.4375 C3.58125 4.613125 3.7875 5.78875 4 7 C4.66 7.33 5.32 7.66 6 8 C6 5.36 6 2.72 6 0 C7.32 0 8.64 0 10 0 C10.33 0.66 10.66 1.32 11 2 C11.66 1.34 12.32 0.68 13 0 C15.13891602 -0.24291992 15.13891602 -0.24291992 17.75390625 -0.23046875 C19.15866211 -0.22756836 19.15866211 -0.22756836 20.59179688 -0.22460938 C21.57212891 -0.21236328 22.55246094 -0.20011719 23.5625 -0.1875 C24.54669922 -0.18685547 25.53089844 -0.18621094 26.54492188 -0.18554688 C33.85982468 -0.14017532 33.85982468 -0.14017532 35 1 C35.07179964 2.51928038 35.08392007 4.04167482 35.0625 5.5625 C35.05347656 6.38878906 35.04445312 7.21507813 35.03515625 8.06640625 C35.02355469 8.70449219 35.01195312 9.34257813 35 10 C34.01 10 33.02 10 32 10 C32 7.69 32 5.38 32 3 C31.01 3 30.02 3 29 3 C29 5.31 29 7.62 29 10 C28.01 10.33 27.02 10.66 26 11 C33.59 11 41.18 11 49 11 C48.505 9.515 48.505 9.515 48 8 C48.99 7.67 49.98 7.34 51 7 C47.32589215 5.82428549 43.83070817 5.92633254 40 6 C40 6.66 40 7.32 40 8 C41.98 8 43.96 8 46 8 C46 8.66 46 9.32 46 10 C42.625 10.125 42.625 10.125 39 10 C37 8 37 8 36.75 5 C37 2 37 2 39 0 C41.875 -0.125 41.875 -0.125 45 0 C46.32 0 47.64 0 49 0 C54 0 59 0 64 0 C63.67 0.99 63.34 1.98 63 3 C62.01 2.67 61.02 2.34 60 2 C60 2.66 60 3.32 60 4 C61.32 4.33 62.64 4.66 64 5 C64 6.32 64 7.64 64 9 C63.01 9.66 62.02 10.32 61 11 C61.495 12.485 61.495 12.485 62 14 C39.56 14 17.12 14 -6 14 C-6 13.34 -6 12.68 -6 12 C0.435 11.505 0.435 11.505 7 11 C4.69 10.34 2.38 9.68 0 9 C0 6.03 0 3.06 0 0 Z " fill="#C5CCD4" transform="translate(117,61)"/>
<path d="M0 0 C6.27 0.66 12.54 1.32 19 2 C21.37851134 11.51404534 22.75271364 19.19867845 18 28 C17.484375 28.969375 16.96875 29.93875 16.4375 30.9375 C15.963125 31.618125 15.48875 32.29875 15 33 C14.34 33 13.68 33 13 33 C12.566875 33.433125 12.13375 33.86625 11.6875 34.3125 C9.6522181 36.3477819 7.52833027 37.63859139 5 39 C4.34 39 3.68 39 3 39 C3 28.77 3 18.54 3 8 C3.66 7.67 4.32 7.34 5 7 C4.67 6.01 4.34 5.02 4 4 C-3.7904433 4.16935746 -9.03234408 8.60535347 -14.78515625 13.52734375 C-16.70305024 15.85225061 -16.1927655 18.10851748 -16 21 C-16.99 20.67 -17.98 20.34 -19 20 C-19.99 23.3 -20.98 26.6 -22 30 C-22.33 30 -22.66 30 -23 30 C-22.31957511 21.78118361 -22.31957511 21.78118361 -20.875 18.25 C-19.78918576 15.45790625 -20.1899197 13.83528103 -21 11 C-20.01 11.99 -19.02 12.98 -18 14 C-17.38125 13.13375 -16.7625 12.2675 -16.125 11.375 C-12.60183091 7.12289937 -7.94578177 4.36391603 -3 2 C-2.01 2 -1.02 2 0 2 C0 1.34 0 0.68 0 0 Z " fill="#CCD3D8" transform="translate(78,60)"/>
<path d="M0 0 C3.0340938 2.2949534 4.60070427 4.34984603 6.29296875 7.734375 C4.1594013 7.27718197 2.43610029 6.81808139 0.54296875 5.7109375 C-6.21184435 2.77916098 -15.95916609 4.21822189 -22.70703125 6.734375 C-27.12988027 9.23289673 -30.22892021 11.12075024 -31.70703125 16.109375 C-31.70703125 16.975625 -31.70703125 17.841875 -31.70703125 18.734375 C-32.36703125 18.074375 -33.02703125 17.414375 -33.70703125 16.734375 C-37.18241815 22.70769623 -38.2807731 26.84947275 -37.70703125 33.734375 C-39.70703125 32.734375 -39.70703125 32.734375 -40.83203125 29.734375 C-43.10389208 20.86503031 -41.46442954 14.48850998 -36.89453125 6.609375 C-27.55249735 -5.6687267 -13.06667931 -7.91919958 0 0 Z " fill="#FBA05D" transform="translate(88.70703125,52.265625)"/>
<path d="M0 0 C1.66869141 -0.00193359 1.66869141 -0.00193359 3.37109375 -0.00390625 C4.53769531 -0.00003906 5.70429688 0.00382812 6.90625 0.0078125 C8.07285156 0.00394531 9.23945313 0.00007813 10.44140625 -0.00390625 C11.55386719 -0.00261719 12.66632813 -0.00132813 13.8125 0 C14.83666016 0.00112793 15.86082031 0.00225586 16.91601562 0.00341797 C19.40625 0.1328125 19.40625 0.1328125 21.40625 1.1328125 C21.40625 5.0928125 21.40625 9.0528125 21.40625 13.1328125 C15.40625 13.1328125 9.40625 13.1328125 3.40625 13.1328125 C3.07625 12.4728125 2.74625 11.8128125 2.40625 11.1328125 C1.74625 11.7928125 1.08625 12.4528125 0.40625 13.1328125 C-3.12946429 12.59709821 -3.12946429 12.59709821 -4.59375 11.1328125 C-4.92375 11.7928125 -5.25375 12.4528125 -5.59375 13.1328125 C-6.25375 13.1328125 -6.91375 13.1328125 -7.59375 13.1328125 C-7.59375 9.1728125 -7.59375 5.2128125 -7.59375 1.1328125 C-4.95377351 -0.18717575 -2.95297683 0.00325218 0 0 Z " fill="#FBE5D7" transform="translate(141.59375,74.8671875)"/>
<path d="M0 0 C1.09441406 -0.02578125 2.18882813 -0.0515625 3.31640625 -0.078125 C6.80267376 0.28839123 8.51524813 1.40231995 11.4375 3.25 C12.7575 3.25 14.0775 3.25 15.4375 3.25 C15.4375 4.24 15.4375 5.23 15.4375 6.25 C13.78814453 6.03730469 13.78814453 6.03730469 12.10546875 5.8203125 C2.21077197 4.7566438 -4.27705156 5.05457459 -12.5625 11.25 C-13.531875 11.95125 -14.50125 12.6525 -15.5 13.375 C-17.5886123 15.27373845 -19.60318042 17.21811303 -21.5625 19.25 C-23.66525875 15.83301703 -24.21177702 13.22682173 -23.5625 9.25 C-21.54209749 7.22959749 -19.8875514 5.80187516 -17.5625 4.25 C-16.7375 3.6725 -15.9125 3.095 -15.0625 2.5 C-10.33474086 0.13612043 -5.21366105 0.07386533 0 0 Z " fill="#FDFAF6" transform="translate(80.5625,55.75)"/>
<path d="M0 0 C2.64 0 5.28 0 8 0 C8.17415915 4.24948329 8.28081127 8.49805155 8.375 12.75 C8.45041016 14.55984375 8.45041016 14.55984375 8.52734375 16.40625 C8.67231616 25.1045948 8.67231616 25.1045948 6.70800781 27.72070312 C4.53849153 29.21628456 2.64987658 30 0 30 C0 20.1 0 10.2 0 0 Z " fill="#11476C" transform="translate(81,69)"/>
<path d="M0 0 C3.0340938 2.2949534 4.60070427 4.34984603 6.29296875 7.734375 C3.66258556 7.20829836 1.66630746 6.42743886 -0.76953125 5.234375 C-5.52892831 3.10407719 -10.56171599 3.00420166 -15.70703125 2.734375 C-15.70703125 2.404375 -15.70703125 2.074375 -15.70703125 1.734375 C-12.40703125 1.404375 -9.10703125 1.074375 -5.70703125 0.734375 C-9.40447937 -0.96645113 -12.27103872 -1.51465519 -16.33203125 -1.453125 C-17.27304688 -1.44667969 -18.2140625 -1.44023438 -19.18359375 -1.43359375 C-21.83304037 -1.36391158 -21.83304037 -1.36391158 -24.70703125 -0.265625 C-24.04703125 0.394375 -23.38703125 1.054375 -22.70703125 1.734375 C-23.61453125 1.981875 -24.52203125 2.229375 -25.45703125 2.484375 C-28.83475822 3.78350076 -30.28222178 5.13636485 -32.70703125 7.734375 C-33.36703125 7.734375 -34.02703125 7.734375 -34.70703125 7.734375 C-37.941465 12.68710169 -39.29243747 15.64615026 -38.70703125 21.734375 C-38.37703125 22.724375 -38.04703125 23.714375 -37.70703125 24.734375 C-37.6396226 26.29555928 -37.62188669 27.8594002 -37.64453125 29.421875 C-37.65355469 30.23011719 -37.66257812 31.03835937 -37.671875 31.87109375 C-37.68347656 32.48597656 -37.69507813 33.10085937 -37.70703125 33.734375 C-39.70703125 32.734375 -39.70703125 32.734375 -40.83203125 29.734375 C-43.10389208 20.86503031 -41.46442954 14.48850998 -36.89453125 6.609375 C-27.55249735 -5.6687267 -13.06667931 -7.91919958 0 0 Z " fill="#FB841F" transform="translate(88.70703125,52.265625)"/>
<path d="M0 0 C2.97 0 5.94 0 9 0 C9 6.93 9 13.86 9 21 C6.03 21 3.06 21 0 21 C0 14.07 0 7.14 0 0 Z " fill="#235476" transform="translate(70,79)"/>
<path d="M0 0 C1.98 0 3.96 0 6 0 C8.23229049 7.39446223 9.66232626 15.52141237 6.75 22.9375 C5 26 5 26 1 30 C0.67 20.1 0.34 10.2 0 0 Z " fill="#084067" transform="translate(91,62)"/>
<path d="M0 0 C2.29160319 -0.02692484 4.58329546 -0.04636124 6.875 -0.0625 C8.15117187 -0.07410156 9.42734375 -0.08570312 10.7421875 -0.09765625 C14 0 14 0 16 1 C16 4.96 16 8.92 16 13 C14.576875 13.061875 13.15375 13.12375 11.6875 13.1875 C10.48673828 13.23970703 10.48673828 13.23970703 9.26171875 13.29296875 C7 13 7 13 5.25 11.65625 C3.63679123 9.51874838 3.35465 7.62441 3 5 C2.01 4.67 1.02 4.34 0 4 C0 2.68 0 1.36 0 0 Z " fill="#FDE9D9" transform="translate(147,75)"/>
<path d="M0 0 C1.03125 0.04125 2.0625 0.0825 3.125 0.125 C4.445 0.125 5.765 0.125 7.125 0.125 C9.125 0.125 11.125 0.125 13.125 0.125 C12.795 1.115 12.465 2.105 12.125 3.125 C11.135 2.795 10.145 2.465 9.125 2.125 C9.125 2.785 9.125 3.445 9.125 4.125 C10.445 4.455 11.765 4.785 13.125 5.125 C12.795 6.775 12.465 8.425 12.125 10.125 C10.145 10.125 8.165 10.125 6.125 10.125 C6.125 9.465 6.125 8.805 6.125 8.125 C7.115 7.795 8.105 7.465 9.125 7.125 C5.45089215 5.94928549 1.95570817 6.05133254 -1.875 6.125 C-1.875 6.785 -1.875 7.445 -1.875 8.125 C0.105 8.125 2.085 8.125 4.125 8.125 C4.125 8.785 4.125 9.445 4.125 10.125 C0.75 10.25 0.75 10.25 -2.875 10.125 C-4.875 8.125 -4.875 8.125 -5.125 5.125 C-4.78844247 1.08630964 -4.08568783 0.1776386 0 0 Z " fill="#1B3E68" transform="translate(158.875,60.875)"/>
<path d="M0 0 C2 1 2 1 3.125 4.0625 C3.41375 5.031875 3.7025 6.00125 4 7 C6.31 7.33 8.62 7.66 11 8 C11 7.34 11 6.68 11 6 C9.02 6 7.04 6 5 6 C5 5.34 5 4.68 5 4 C6.43410368 3.75045995 7.87260072 3.52607358 9.3125 3.3125 C10.51326172 3.12107422 10.51326172 3.12107422 11.73828125 2.92578125 C14 3 14 3 15.79296875 4.48046875 C16.19128906 4.98191406 16.58960938 5.48335938 17 6 C15.68 6 14.36 6 13 6 C13.95865509 8.33075929 13.95865509 8.33075929 17 10 C8.09 10 -0.82 10 -10 10 C-9.67 9.34 -9.34 8.68 -9 8 C-8.01 8 -7.02 8 -6 8 C-6 5.69 -6 3.38 -6 1 C-5.01 1 -4.02 1 -3 1 C-3 3.31 -3 5.62 -3 8 C-2.01 8 -1.02 8 0 8 C0 5.36 0 2.72 0 0 Z " fill="#EBEFF2" transform="translate(152,63)"/>
<path d="M0 0 C3.96 0.33 7.92 0.66 12 1 C12 1.66 12 2.32 12 3 C10.54980469 3.09474609 10.54980469 3.09474609 9.0703125 3.19140625 C-0.04263424 4.04856461 -5.98383314 5.69948216 -13 12 C-13.57878906 12.50273438 -14.15757813 13.00546875 -14.75390625 13.5234375 C-16.71275008 15.84457533 -16.19413381 18.08799278 -16 21 C-16.99 20.67 -17.98 20.34 -19 20 C-19.99 23.3 -20.98 26.6 -22 30 C-22.33 30 -22.66 30 -23 30 C-22.31957511 21.78118361 -22.31957511 21.78118361 -20.875 18.25 C-19.78918576 15.45790625 -20.1899197 13.83528103 -21 11 C-20.01 11.99 -19.02 12.98 -18 14 C-17.38125 13.13375 -16.7625 12.2675 -16.125 11.375 C-12.60183091 7.12289937 -7.94578177 4.36391603 -3 2 C-2.01 2 -1.02 2 0 2 C0 1.34 0 0.68 0 0 Z " fill="#FB8C33" transform="translate(78,60)"/>
<path d="M0 0 C2.64 0 5.28 0 8 0 C8 3.96 8 7.92 8 12 C2.25 11.125 2.25 11.125 0 10 C0 6.7 0 3.4 0 0 Z " fill="#0E446A" transform="translate(60,87)"/>
<path d="M0 0 C2.06183633 -0.08150744 4.12461349 -0.1394194 6.1875 -0.1875 C7.33605469 -0.22230469 8.48460938 -0.25710937 9.66796875 -0.29296875 C13.31972842 0.02811211 14.96512714 1.05666124 18 3 C19.32 3 20.64 3 22 3 C22 3.99 22 4.98 22 6 C19.26935053 5.91269147 16.5418381 5.80577876 13.8125 5.6875 C12.65911133 5.65366211 12.65911133 5.65366211 11.48242188 5.61914062 C6.92077553 5.40378393 3.68227712 4.98862171 0 2 C0 1.34 0 0.68 0 0 Z " fill="#FBECE1" transform="translate(74,56)"/>
<path d="M0 0 C6.15234375 -0.09765625 6.15234375 -0.09765625 8 0 C9 1 9 1 9.09765625 3.06640625 C9.08605469 3.89011719 9.07445312 4.71382813 9.0625 5.5625 C9.05347656 6.38878906 9.04445312 7.21507813 9.03515625 8.06640625 C9.02355469 8.70449219 9.01195312 9.34257813 9 10 C8.01 10 7.02 10 6 10 C6 7.69 6 5.38 6 3 C5.01 3 4.02 3 3 3 C3 5.31 3 7.62 3 10 C2.01 10 1.02 10 0 10 C0 6.7 0 3.4 0 0 Z " fill="#264C70" transform="translate(143,61)"/>
<path d="M0 0 C0.99 0 1.98 0 3 0 C3.185625 1.7015625 3.185625 1.7015625 3.375 3.4375 C3.684375 5.2009375 3.684375 5.2009375 4 7 C4.66 7.33 5.32 7.66 6 8 C6 5.36 6 2.72 6 0 C6.99 0 7.98 0 9 0 C9 3.3 9 6.6 9 10 C2.84765625 10.09765625 2.84765625 10.09765625 1 10 C0 9 0 9 -0.09765625 6.93359375 C-0.08605469 6.10988281 -0.07445313 5.28617187 -0.0625 4.4375 C-0.05347656 3.61121094 -0.04445313 2.78492188 -0.03515625 1.93359375 C-0.02355469 1.29550781 -0.01195313 0.65742187 0 0 Z " fill="#295073" transform="translate(117,61)"/>
<path d="M0 0 C0.99 0 1.98 0 3 0 C3 3.63 3 7.26 3 11 C3.99 10.67 4.98 10.34 6 10 C6.33 8.35 6.66 6.7 7 5 C7.99 5.33 8.98 5.66 10 6 C9.125 11.875 9.125 11.875 8 13 C5.32941149 13.14115161 2.67567762 13.04247107 0 13 C0 8.71 0 4.42 0 0 Z " fill="#134067" transform="translate(106,58)"/>
<path d="M0 0 C0.763125 0.495 1.52625 0.99 2.3125 1.5 C2.3125 1.83 2.3125 2.16 2.3125 2.5 C-0.22923977 2.52716824 -2.77068415 2.54691969 -5.3125 2.5625 C-6.38177734 2.57506836 -6.38177734 2.57506836 -7.47265625 2.58789062 C-11.66094438 2.60710296 -15.5603462 2.3267327 -19.6875 1.5 C-14.77416363 -3.41333637 -5.97405129 -2.43012256 0 0 Z " fill="#FDE1CD" transform="translate(81.6875,51.5)"/>
<path d="M0 0 C0.66 0 1.32 0 2 0 C2 0.66 2 1.32 2 2 C3.32 2.33 4.64 2.66 6 3 C6.625 5.3125 6.625 5.3125 7 8 C6.01 9.485 6.01 9.485 5 11 C3.35 11 1.7 11 0 11 C0 7.37 0 3.74 0 0 Z " fill="#FBBD8F" transform="translate(145,77)"/>
<path d="M0 0 C2.625 0.375 2.625 0.375 5 1 C5.02689216 2.47906892 5.04634621 3.95827483 5.0625 5.4375 C5.07410156 6.26121094 5.08570313 7.08492188 5.09765625 7.93359375 C5 10 5 10 4 11 C2.33382885 11.04063832 0.66611905 11.042721 -1 11 C0.32 10.67 1.64 10.34 3 10 C3 9.34 3 8.68 3 8 C1.35 7.67 -0.3 7.34 -2 7 C-2.125 4.625 -2.125 4.625 -2 2 C-1.34 1.34 -0.68 0.68 0 0 Z " fill="#FB9952" transform="translate(128,79)"/>
<path d="M0 0 C1.4540625 0.0309375 1.4540625 0.0309375 2.9375 0.0625 C2.9375 1.0525 2.9375 2.0425 2.9375 3.0625 C1.2875 2.7325 -0.3625 2.4025 -2.0625 2.0625 C-2.0625 2.7225 -2.0625 3.3825 -2.0625 4.0625 C-0.4125 4.3925 1.2375 4.7225 2.9375 5.0625 C2.6075 6.7125 2.2775 8.3625 1.9375 10.0625 C-0.3725 10.0625 -2.6825 10.0625 -5.0625 10.0625 C-4.7325 9.0725 -4.4025 8.0825 -4.0625 7.0625 C-3.0725 7.0625 -2.0825 7.0625 -1.0625 7.0625 C-2.3825 6.4025 -3.7025 5.7425 -5.0625 5.0625 C-3.9375 0.08035714 -3.9375 0.08035714 0 0 Z " fill="#274B71" transform="translate(133.0625,60.9375)"/>
<path d="M0 0 C1.98 0 3.96 0 6 0 C5.67 0.99 5.34 1.98 5 3 C4.01 2.67 3.02 2.34 2 2 C2 2.66 2 3.32 2 4 C3.32 4.33 4.64 4.66 6 5 C6 6.32 6 7.64 6 9 C5 10 5 10 1.9375 10.0625 C0.968125 10.041875 -0.00125 10.02125 -1 10 C-1 9.34 -1 8.68 -1 8 C0.32 7.67 1.64 7.34 3 7 C1.68 6.34 0.36 5.68 -1 5 C-0.67 3.35 -0.34 1.7 0 0 Z " fill="#173C65" transform="translate(175,61)"/>
<path d="M0 0 C1.57561912 3.15123823 0.69813146 5.62569792 0 9 C-1.4375 11.125 -1.4375 11.125 -3 13 C-3.71162443 14.64797236 -4.39031953 16.31165408 -5 18 C-5.33 18 -5.66 18 -6 18 C-6.74224763 10.87442279 -5.39195732 6.64474515 -1 1 C-0.67 0.67 -0.34 0.34 0 0 Z " fill="#FDF3EB" transform="translate(55,58)"/>
<path d="M0 0 C3.53571429 0.53571429 3.53571429 0.53571429 5 2 C5.1875 4.4375 5.1875 4.4375 5 7 C4.34 7.66 3.68 8.32 3 9 C-0.53571429 8.46428571 -0.53571429 8.46428571 -2 7 C-2.1875 4.5625 -2.1875 4.5625 -2 2 C-1.34 1.34 -0.68 0.68 0 0 Z " fill="#FB9B54" transform="translate(139,79)"/>
<path d="M0 0 C1.2065625 0.0309375 1.2065625 0.0309375 2.4375 0.0625 C1.4475 0.3925 0.4575 0.7225 -0.5625 1.0625 C-0.5625 1.7225 -0.5625 2.3825 -0.5625 3.0625 C0.7575 2.7325 2.0775 2.4025 3.4375 2.0625 C3.4375 2.7225 3.4375 3.3825 3.4375 4.0625 C4.0975 4.3925 4.7575 4.7225 5.4375 5.0625 C3.4575 5.0625 1.4775 5.0625 -0.5625 5.0625 C-0.5625 5.7225 -0.5625 6.3825 -0.5625 7.0625 C1.4175 7.0625 3.3975 7.0625 5.4375 7.0625 C5.4375 7.7225 5.4375 8.3825 5.4375 9.0625 C2.0625 9.1875 2.0625 9.1875 -1.5625 9.0625 C-3.5625 7.0625 -3.5625 7.0625 -3.75 4 C-3.50012994 0.08536902 -3.50012994 0.08536902 0 0 Z " fill="#2C5173" transform="translate(157.5625,61.9375)"/>
<path d="M0 0 C0.66 0 1.32 0 2 0 C2.33 0.66 2.66 1.32 3 2 C5.3140622 2.73075648 7.64828869 3.40138258 10 4 C10 4.33 10 4.66 10 5 C5.38 5 0.76 5 -4 5 C-4 5.66 -4 6.32 -4 7 C-4.99 7 -5.98 7 -7 7 C-7.33 5.68 -7.66 4.36 -8 3 C-6.865625 2.87625 -5.73125 2.7525 -4.5625 2.625 C-3.386875 2.41875 -2.21125 2.2125 -1 2 C-0.67 1.34 -0.34 0.68 0 0 Z " fill="#F4F7F8" transform="translate(115,68)"/>
<path d="M0 0 C5.06873851 2.07357484 7.26847601 4.27236232 10 9 C7.36961681 8.47392336 5.37333871 7.69306386 2.9375 6.5 C-1.82189706 4.36970219 -6.85468474 4.26982666 -12 4 C-12 3.67 -12 3.34 -12 3 C-11.21753906 2.95101562 -10.43507813 2.90203125 -9.62890625 2.8515625 C-8.61699219 2.77679688 -7.60507813 2.70203125 -6.5625 2.625 C-5.55316406 2.55539063 -4.54382813 2.48578125 -3.50390625 2.4140625 C-2.26447266 2.20910156 -2.26447266 2.20910156 -1 2 C-0.67 1.34 -0.34 0.68 0 0 Z " fill="#FC7E13" transform="translate(85,51)"/>
<path d="M0 0 C0.99 0.99 1.98 1.98 3 3 C4.32 2.34 5.64 1.68 7 1 C6.01 2.485 6.01 2.485 5 4 C4.83300768 7.12521833 4.83300768 7.12521833 5 10 C4.01 9.67 3.02 9.34 2 9 C1.01 12.3 0.02 15.6 -1 19 C-1.33 19 -1.66 19 -2 19 C-1.31957511 10.78118361 -1.31957511 10.78118361 0.125 7.25 C1.21081424 4.45790625 0.8100803 2.83528103 0 0 Z " fill="#FBAC71" transform="translate(57,71)"/>
<path d="M0 0 C-2.5 2 -2.5 2 -5 4 C-5.886875 4.7425 -6.77375 5.485 -7.6875 6.25 C-10 8 -10 8 -12 8 C-11.65447612 5.44312331 -11.24912987 3.42498625 -9.9375 1.1875 C-6.75444301 -0.7634059 -3.67569327 -0.1807718 0 0 Z " fill="#FCF1E7" transform="translate(68,55)"/>
<path d="M0 0 C0 2.31 0 4.62 0 7 C-1.65 7.33 -3.3 7.66 -5 8 C-5.33 6.68 -5.66 5.36 -6 4 C-4.68 3.34 -3.36 2.68 -2 2 C-3.32 2 -4.64 2 -6 2 C-6 1.34 -6 0.68 -6 0 C-3.50907189 -1.24546405 -2.58919267 -0.7767578 0 0 Z " fill="#FB9948" transform="translate(159,80)"/>
<path d="M0 0 C0.99 0 1.98 0 3 0 C3.144375 1.11375 3.28875 2.2275 3.4375 3.375 C3.78372035 6.82142047 3.78372035 6.82142047 5 9 C2.03 9 -0.94 9 -4 9 C-3.67 8.34 -3.34 7.68 -3 7 C-2.01 7 -1.02 7 0 7 C0 4.69 0 2.38 0 0 Z " fill="#F6F8F9" transform="translate(146,64)"/>
<path d="M0 0 C-0.99 0.495 -0.99 0.495 -2 1 C-2 2.65 -2 4.3 -2 6 C-3.32 6.33 -4.64 6.66 -6 7 C-6 5.02 -6 3.04 -6 1 C-6.66 0.67 -7.32 0.34 -8 0 C-4.71023192 -1.09658936 -3.28696233 -0.79953138 0 0 Z " fill="#8FA3B4" transform="translate(115,62)"/>
<path d="M0 0 C0.33 0.99 0.66 1.98 1 3 C2.32 2.01 3.64 1.02 5 0 C5.66 0.33 6.32 0.66 7 1 C6.360625 1.53625 5.72125 2.0725 5.0625 2.625 C2.61470596 5.44367193 2.33285388 7.33860732 2 11 C1.34 10.34 0.68 9.68 0 9 C-1.32 10.65 -2.64 12.3 -4 14 C-3.25 9.25 -3.25 9.25 -1 7 C-0.59952556 4.67724823 -0.2602896 2.34260643 0 0 Z " fill="#FB9542" transform="translate(55,60)"/>
<path d="M0 0 C2.60464489 2.60464489 3.94531838 4.1830566 4.1953125 7.91796875 C4.17210937 8.99691406 4.14890625 10.07585937 4.125 11.1875 C4.10695313 12.27417969 4.08890625 13.36085938 4.0703125 14.48046875 C4.03550781 15.72763672 4.03550781 15.72763672 4 17 C2 16 2 16 0.875 13 C-0.27521462 8.67770912 -0.18124209 4.44043127 0 0 Z " fill="#FCB383" transform="translate(47,69)"/>
<path d="M0 0 C0.99 0 1.98 0 3 0 C3 3.3 3 6.6 3 10 C2.01 10 1.02 10 0 10 C0 6.7 0 3.4 0 0 Z " fill="#2A4A6F" transform="translate(138,61)"/>
<path d="M0 0 C-1.32 0.33 -2.64 0.66 -4 1 C-4 1.66 -4 2.32 -4 3 C-4.66 3 -5.32 3 -6 3 C-6 2.34 -6 1.68 -6 1 C-7.98 1 -9.96 1 -12 1 C-12 0.34 -12 -0.32 -12 -1 C-7.28400182 -1.92470553 -4.32734391 -2.22923777 0 0 Z " fill="#D3DBE1" transform="translate(169,68)"/>
<path d="M0 0 C5.625 -0.25 5.625 -0.25 9 2 C8.67 3.32 8.34 4.64 8 6 C7.401875 5.67 6.80375 5.34 6.1875 5 C3.94613529 3.79212012 3.94613529 3.79212012 1 4 C0.67 2.68 0.34 1.36 0 0 Z " fill="#768FA4" transform="translate(156,61)"/>
<path d="M0 0 C0.33 0 0.66 0 1 0 C1 3.3 1 6.6 1 10 C-1 8 -1 8 -2 5 C-4.01508358 4.26676204 -4.01508358 4.26676204 -6 4 C-6 3.34 -6 2.68 -6 2 C-3.525 2.495 -3.525 2.495 -1 3 C-0.67 2.01 -0.34 1.02 0 0 Z " fill="#D7E0E5" transform="translate(137,61)"/>
<path d="M0 0 C1.98 0 3.96 0 6 0 C5.67 0.99 5.34 1.98 5 3 C4.01 2.67 3.02 2.34 2 2 C2 2.66 2 3.32 2 4 C2.99 4.33 3.98 4.66 5 5 C3.02 5 1.04 5 -1 5 C-0.67 3.35 -0.34 1.7 0 0 Z " fill="#2D5074" transform="translate(175,61)"/>
<path d="M0 0 C1.98 0 3.96 0 6 0 C5.67 0.99 5.34 1.98 5 3 C4.01 2.67 3.02 2.34 2 2 C2 2.66 2 3.32 2 4 C2.99 4.33 3.98 4.66 5 5 C3.02 5 1.04 5 -1 5 C-0.67 3.35 -0.34 1.7 0 0 Z " fill="#2F5275" transform="translate(166,61)"/>
<path d="M0 0 C0.66 0.66 1.32 1.32 2 2 C1.49339844 2.79664063 1.49339844 2.79664063 0.9765625 3.609375 C0.30753906 4.66898438 0.30753906 4.66898438 -0.375 5.75 C-0.81585938 6.44609375 -1.25671875 7.1421875 -1.7109375 7.859375 C-2.91880906 9.86517383 -3.98387737 11.89178296 -5 14 C-5.74737188 8.02102497 -3.3231898 4.67620279 0 0 Z " fill="#FB9340" transform="translate(53,57)"/>
<path d="M0 0 C0.99 0.33 1.98 0.66 3 1 C2.67 2.98 2.34 4.96 2 7 C0.35 7.33 -1.3 7.66 -3 8 C-2.01 7.67 -1.02 7.34 0 7 C0 4.69 0 2.38 0 0 Z " fill="#1F466D" transform="translate(113,63)"/>
<path d="M0 0 C1.98 0.495 1.98 0.495 4 1 C3.67 2.32 3.34 3.64 3 5 C1.68 4.67 0.36 4.34 -1 4 C-0.67 2.68 -0.34 1.36 0 0 Z " fill="#FCF3EA" transform="translate(139,81)"/>
<path d="M0 0 C1.65 0 3.3 0 5 0 C4.67 1.32 4.34 2.64 4 4 C2.68 3.67 1.36 3.34 0 3 C0 2.01 0 1.02 0 0 Z " fill="#FBC49A" transform="translate(153,84)"/>
<path d="M0 0 C0.99 0 1.98 0 3 0 C3 1.65 3 3.3 3 5 C1.68 4.67 0.36 4.34 -1 4 C-0.67 2.68 -0.34 1.36 0 0 Z " fill="#FDF5EF" transform="translate(128,81)"/>
<path d="M0 0 C2.64 0.66 5.28 1.32 8 2 C8 2.66 8 3.32 8 4 C5.69 4 3.38 4 1 4 C0.67 2.68 0.34 1.36 0 0 Z " fill="#153865" transform="translate(155,67)"/>
<path d="M0 0 C2.88575819 0.39803561 3.82189513 0.79009069 5.75 3.0625 C6.1625 3.701875 6.575 4.34125 7 5 C4.03824877 4.38722388 2.61941217 3.74627478 0 2 C0 1.34 0 0.68 0 0 Z " fill="#FC7B02" transform="translate(88,55)"/>
<path d="M0 0 C2.4375 0.375 2.4375 0.375 5 1 C5.33 1.66 5.66 2.32 6 3 C3.03 3 0.06 3 -3 3 C-2.01 2.67 -1.02 2.34 0 2 C0 1.34 0 0.68 0 0 Z " fill="#FBD6BA" transform="translate(78,51)"/>
</svg>
